<svg xmlns="http://www.w3.org/2000/svg" xmlns:xlink="http://www.w3.org/1999/xlink" width="1893" height="993.305" viewBox="0 0 1893 993.305">
  <defs>
    <linearGradient id="linear-gradient" x1="0.5" y1="1" x2="0.5" gradientUnits="objectBoundingBox">
      <stop offset="0" stop-color="gray" stop-opacity="0.251"/>
      <stop offset="0.54" stop-color="gray" stop-opacity="0.122"/>
      <stop offset="1" stop-color="gray" stop-opacity="0.102"/>
    </linearGradient>
    <linearGradient id="linear-gradient-2" x1="0.5" y1="1" x2="0.5" y2="-0.001" xlink:href="#linear-gradient"/>
  </defs>
  <g id="Group_16" data-name="Group 16" transform="translate(0 0.359)">
    <g id="Group_8" data-name="Group 8" transform="translate(734.313 68.729)" opacity="0.1">
      <ellipse id="Ellipse_30" data-name="Ellipse 30" cx="19.655" cy="25.735" rx="19.655" ry="25.735" transform="translate(74.081 531.247)" fill="#3f3d56"/>
      <path id="Path_260" data-name="Path 260" d="M555.287,478.46a31.089,31.089,0,0,0,4.111-15.735c0-14.215-8.809-25.735-19.673-25.735S520,448.545,520,462.76a31.09,31.09,0,0,0,4.111,15.735,32.143,32.143,0,0,0,0,31.452,32.143,32.143,0,0,0,0,31.452A30.986,30.986,0,0,0,520,557.133c0,14.2,8.809,25.735,19.655,25.735s19.673-11.538,19.673-25.735a30.986,30.986,0,0,0-4.111-15.735,32.144,32.144,0,0,0,0-31.452,32.143,32.143,0,0,0,0-31.452Z" transform="translate(-445.989 -31.586)" fill="#3f3d56"/>
      <ellipse id="Ellipse_31" data-name="Ellipse 31" cx="19.655" cy="25.735" rx="19.655" ry="25.735" transform="translate(74.081 373.986)" fill="#3f3d56"/>
      <ellipse id="Ellipse_32" data-name="Ellipse 32" cx="19.655" cy="25.735" rx="19.655" ry="25.735" transform="translate(74.081 342.534)" fill="#3f3d56"/>
      <path id="Path_261" data-name="Path 261" d="M497.307,355.281a91.678,91.678,0,0,1-7.323-10.778l51.643-8.48-55.857.414a94.339,94.339,0,0,1-1.727-74.615L558.985,300.7,489.9,249.888A94.184,94.184,0,1,1,645.344,355.246a94.194,94.194,0,0,1,10.743,17.168l-67.067,34.924,71.488-23.991a94.184,94.184,0,0,1-15.182,88.432,94.166,94.166,0,1,1-148.02,0,94.167,94.167,0,0,1,0-116.447Z" transform="translate(-477.149 -202.271)" fill="#6c63ff"/>
      <path id="Path_262" data-name="Path 262" d="M665.483,325.154a93.735,93.735,0,0,1-20.156,58.224,94.166,94.166,0,1,1-148.02,0C484.681,367.35,665.483,314.584,665.483,325.154Z" transform="translate(-477.149 -113.921)" opacity="0.1"/>
    </g>
    <g id="Group_9" data-name="Group 9" transform="translate(987.469 154.798)" opacity="0.1">
      <ellipse id="Ellipse_33" data-name="Ellipse 33" cx="14.698" cy="19.224" rx="14.698" ry="19.224" transform="translate(55.356 396.661)" fill="#3f3d56"/>
      <path id="Path_263" data-name="Path 263" d="M682.083,458.306a23.2,23.2,0,0,0,3.057-11.745c0-10.622-6.581-19.241-14.681-19.241s-14.7,8.636-14.7,19.241a23.026,23.026,0,0,0,3.075,11.745,24.008,24.008,0,0,0,0,23.507,24.008,24.008,0,0,0,0,23.507,23.024,23.024,0,0,0-3.074,11.745c0,10.622,6.58,19.241,14.7,19.241s14.681-8.636,14.681-19.241a23.2,23.2,0,0,0-3.057-11.745,24.18,24.18,0,0,0,0-23.507,24.181,24.181,0,0,0,0-23.507Z" transform="translate(-600.422 -124.687)" fill="#3f3d56"/>
      <ellipse id="Ellipse_34" data-name="Ellipse 34" cx="14.698" cy="19.224" rx="14.698" ry="19.224" transform="translate(55.356 279.143)" fill="#3f3d56"/>
      <ellipse id="Ellipse_35" data-name="Ellipse 35" cx="14.698" cy="19.224" rx="14.698" ry="19.224" transform="translate(55.356 255.636)" fill="#3f3d56"/>
      <path id="Path_264" data-name="Path 264" d="M638.781,366.109a67.344,67.344,0,0,1-5.475-8.049l38.6-6.339-41.746.311a70.538,70.538,0,0,1-1.347-55.771l56.013,29.069-51.66-38a70.383,70.383,0,1,1,116.223,78.76,71.182,71.182,0,0,1,8.031,12.833l-50.088,26.029,53.422-17.928a70.4,70.4,0,0,1-11.347,66.082,70.366,70.366,0,1,1-110.54,0,70.366,70.366,0,0,1,0-87.016Z" transform="translate(-623.72 -252.103)" fill="#6c63ff"/>
      <path id="Path_265" data-name="Path 265" d="M764.437,343.736a70.071,70.071,0,0,1-15.061,43.508,70.366,70.366,0,1,1-110.54,0C629.371,375.275,764.437,335.843,764.437,343.736Z" transform="translate(-623.707 -186.222)" opacity="0.1"/>
    </g>
    <g id="Group_10" data-name="Group 10" transform="translate(1698.762 -0.359)" opacity="0.1">
      <ellipse id="Ellipse_36" data-name="Ellipse 36" cx="19.655" cy="25.735" rx="19.655" ry="25.735" transform="translate(75.407 531.247)" fill="#3f3d56"/>
      <path id="Path_266" data-name="Path 266" d="M1083.3,438.46a31.092,31.092,0,0,1-4.111-15.735c0-14.215,8.808-25.735,19.672-25.735s19.656,11.52,19.656,25.735a31.087,31.087,0,0,1-4.111,15.735,32.143,32.143,0,0,1,0,31.452,32.143,32.143,0,0,1,0,31.452,30.986,30.986,0,0,1,4.111,15.735c0,14.2-8.809,25.735-19.656,25.735s-19.673-11.538-19.673-25.735a30.983,30.983,0,0,1,4.111-15.735,32.143,32.143,0,0,1,0-31.452A32.143,32.143,0,0,1,1083.3,438.46Z" transform="translate(-1003.801 8.414)" fill="#3f3d56"/>
      <ellipse id="Ellipse_37" data-name="Ellipse 37" cx="19.655" cy="25.735" rx="19.655" ry="25.735" transform="translate(75.407 373.986)" fill="#3f3d56"/>
      <ellipse id="Ellipse_38" data-name="Ellipse 38" cx="19.655" cy="25.735" rx="19.655" ry="25.735" transform="translate(75.407 342.534)" fill="#3f3d56"/>
      <path id="Path_267" data-name="Path 267" d="M1204.182,315.281a91.68,91.68,0,0,0,7.324-10.778l-51.643-8.481,55.857.415a94.339,94.339,0,0,0,1.727-74.615L1142.5,260.7l69.088-50.814a94.184,94.184,0,1,0-155.447,105.359,94.2,94.2,0,0,0-10.743,17.168l67.066,34.924-71.489-23.991a94.183,94.183,0,0,0,15.182,88.432,94.166,94.166,0,1,0,148.02,0,94.166,94.166,0,0,0,0-116.447Z" transform="translate(-1035.541 -162.271)" fill="#6c63ff"/>
      <path id="Path_268" data-name="Path 268" d="M1035.811,285.154a93.735,93.735,0,0,0,20.156,58.223,94.166,94.166,0,1,0,148.02,0C1216.613,327.35,1035.811,274.584,1035.811,285.154Z" transform="translate(-1035.346 -73.921)" opacity="0.1"/>
    </g>
    <g id="Group_11" data-name="Group 11" transform="translate(1533.324 144.435)" opacity="0.1">
      <ellipse id="Ellipse_39" data-name="Ellipse 39" cx="14.698" cy="19.224" rx="14.698" ry="19.224" transform="translate(56.053 396.661)" fill="#3f3d56"/>
      <path id="Path_269" data-name="Path 269" d="M975.288,452.306a23.2,23.2,0,0,1-3.057-11.745c0-10.622,6.581-19.241,14.681-19.241s14.7,8.636,14.7,19.241a23.022,23.022,0,0,1-3.074,11.745,24.008,24.008,0,0,1,0,23.507,24.008,24.008,0,0,1,0,23.507,23.023,23.023,0,0,1,3.074,11.745c0,10.622-6.581,19.241-14.7,19.241s-14.681-8.636-14.681-19.241a23.2,23.2,0,0,1,3.057-11.745,24.18,24.18,0,0,1,0-23.507,24.18,24.18,0,0,1,0-23.507Z" transform="translate(-916.143 -118.687)" fill="#3f3d56"/>
      <ellipse id="Ellipse_40" data-name="Ellipse 40" cx="14.698" cy="19.224" rx="14.698" ry="19.224" transform="translate(56.053 279.143)" fill="#3f3d56"/>
      <ellipse id="Ellipse_41" data-name="Ellipse 41" cx="14.698" cy="19.224" rx="14.698" ry="19.224" transform="translate(56.053 255.636)" fill="#3f3d56"/>
      <path id="Path_270" data-name="Path 270" d="M1065.5,360.11a67.331,67.331,0,0,0,5.475-8.049l-38.6-6.339,41.746.311a70.537,70.537,0,0,0,1.347-55.771l-56.013,29.069,51.66-38a70.383,70.383,0,1,0-116.223,78.76,71.169,71.169,0,0,0-8.031,12.833l50.089,26.029-53.318-17.911a70.4,70.4,0,0,0,11.348,66.082,70.366,70.366,0,1,0,110.54,0,70.366,70.366,0,0,0,0-87.016Z" transform="translate(-939.757 -246.103)" fill="#6c63ff"/>
      <path id="Path_271" data-name="Path 271" d="M939.815,337.736a70.073,70.073,0,0,0,15.061,43.508,70.366,70.366,0,1,0,110.54,0C1074.881,369.275,939.815,329.843,939.815,337.736Z" transform="translate(-939.74 -180.222)" opacity="0.1"/>
    </g>
    <g id="Group_12" data-name="Group 12" transform="translate(12.624 -0.07)" opacity="0.1">
      <ellipse id="Ellipse_42" data-name="Ellipse 42" cx="19.655" cy="25.735" rx="19.655" ry="25.735" transform="translate(74.098 530.958)" fill="#3f3d56"/>
      <path id="Path_272" data-name="Path 272" d="M137.411,438.46a31.089,31.089,0,0,0,4.111-15.735c0-14.215-8.809-25.735-19.655-25.735s-19.655,11.52-19.655,25.735A31.09,31.09,0,0,0,106.3,438.46a32.246,32.246,0,0,0,0,31.452,32.247,32.247,0,0,0,0,31.452,30.969,30.969,0,0,0-4.093,15.735c0,14.2,8.791,25.735,19.655,25.735s19.707-11.5,19.707-25.7a30.986,30.986,0,0,0-4.111-15.735,32.143,32.143,0,0,0,0-31.452,32.143,32.143,0,0,0,0-31.452Z" transform="translate(-28.113 8.125)" fill="#3f3d56"/>
      <ellipse id="Ellipse_43" data-name="Ellipse 43" cx="19.655" cy="25.735" rx="19.655" ry="25.735" transform="translate(74.098 373.697)" fill="#3f3d56"/>
      <ellipse id="Ellipse_44" data-name="Ellipse 44" cx="19.655" cy="25.735" rx="19.655" ry="25.735" transform="translate(74.098 342.245)" fill="#3f3d56"/>
      <path id="Path_273" data-name="Path 273" d="M79.5,315.159a93.835,93.835,0,0,1-7.323-10.778l51.66-8.481-55.909.5A94.339,94.339,0,0,1,66.2,221.787l74.96,38.879L72.075,209.852A94.166,94.166,0,1,1,227.522,315.211a94.2,94.2,0,0,1,10.743,17.168l-67.084,34.837,71.506-23.991a94.288,94.288,0,0,1-15.2,88.432,94.166,94.166,0,1,1-148.02,0,94.166,94.166,0,0,1,0-116.447Z" transform="translate(-59.309 -162.439)" fill="#6c63ff"/>
      <path id="Path_274" data-name="Path 274" d="M247.643,285.154a93.734,93.734,0,0,1-20.156,58.224,94.166,94.166,0,1,1-148.02,0C66.841,327.35,247.643,274.584,247.643,285.154Z" transform="translate(-59.309 -74.21)" opacity="0.1"/>
    </g>
    <g id="Group_13" data-name="Group 13" transform="translate(226.055 144.434)" opacity="0.1">
      <ellipse id="Ellipse_45" data-name="Ellipse 45" cx="14.698" cy="19.224" rx="14.698" ry="19.224" transform="translate(55.356 396.661)" fill="#3f3d56"/>
      <path id="Path_275" data-name="Path 275" d="M241.253,452.306a23.2,23.2,0,0,0,3.057-11.745c0-10.622-6.563-19.241-14.681-19.241s-14.7,8.636-14.7,19.241A23.2,23.2,0,0,0,218,452.306a24.008,24.008,0,0,0,0,23.507,24.008,24.008,0,0,0,0,23.507,23.2,23.2,0,0,0-3.074,11.745c0,10.622,6.581,19.241,14.7,19.241s14.681-8.636,14.681-19.241a23.2,23.2,0,0,0-3.057-11.745,24.18,24.18,0,0,0,0-23.507,24.18,24.18,0,0,0,0-23.507Z" transform="translate(-159.574 -118.687)" fill="#3f3d56"/>
      <ellipse id="Ellipse_46" data-name="Ellipse 46" cx="14.698" cy="19.224" rx="14.698" ry="19.224" transform="translate(55.356 279.143)" fill="#3f3d56"/>
      <ellipse id="Ellipse_47" data-name="Ellipse 47" cx="14.698" cy="19.224" rx="14.698" ry="19.224" transform="translate(55.356 255.636)" fill="#3f3d56"/>
      <path id="Path_276" data-name="Path 276" d="M197.941,360.11a69.446,69.446,0,0,1-5.475-8.049l38.6-6.339-41.746.311a70.538,70.538,0,0,1-1.347-55.771l56.013,29.069-51.66-38a70.383,70.383,0,1,1,116.223,78.76,69.294,69.294,0,0,1,8.031,12.833l-50.088,26.029,53.422-17.928a70.4,70.4,0,0,1-11.348,66.082,70.366,70.366,0,1,1-110.54,0,70.366,70.366,0,0,1,0-87.016Z" transform="translate(-182.88 -246.103)" fill="#6c63ff"/>
      <path id="Path_277" data-name="Path 277" d="M323.6,337.736a70.072,70.072,0,0,1-15.061,43.508,70.366,70.366,0,1,1-110.54,0C188.5,369.275,323.6,329.843,323.6,337.736Z" transform="translate(-182.866 -180.221)" opacity="0.1"/>
    </g>
    <ellipse id="Ellipse_48" data-name="Ellipse 48" cx="946.5" cy="15.303" rx="946.5" ry="15.303" transform="translate(0 836.687)" fill="#6c63ff" opacity="0.1"/>
    <ellipse id="Ellipse_49" data-name="Ellipse 49" cx="946.5" cy="15.303" rx="946.5" ry="15.303" transform="translate(0 962.34)" fill="#6c63ff" opacity="0.1"/>
    <ellipse id="Ellipse_50" data-name="Ellipse 50" cx="946.5" cy="15.303" rx="946.5" ry="15.303" transform="translate(0 574.448)" fill="#6c63ff" opacity="0.1"/>
    <ellipse id="Ellipse_51" data-name="Ellipse 51" cx="946.5" cy="15.303" rx="946.5" ry="15.303" transform="translate(0 705.559)" fill="#6c63ff" opacity="0.1"/>
    <path id="Path_278" data-name="Path 278" d="M900.662,290.714a31.607,31.607,0,0,0-18.308,2,27.03,27.03,0,0,1-22,0,30.883,30.883,0,0,0-25.908.5A15.96,15.96,0,0,1,827,295.084c-10.5,0-19.224-10.57-21.037-24.509a20.517,20.517,0,0,0,5.182-5.648c6.149-9.914,15.666-16.287,26.374-16.287s20.1,6.287,26.253,16.1a20.173,20.173,0,0,0,17.427,9.569h.276C889.919,274.22,897.156,280.921,900.662,290.714Z" transform="translate(496.272 -99.824)" fill="#6c63ff" opacity="0.1"/>
    <path id="Path_279" data-name="Path 279" d="M932.647,263.35l-16.961,10.743,10.363-18.723a16.754,16.754,0,0,0-10.26-3.644h-.276a19.606,19.606,0,0,1-3.454-.259l-5.838,3.644,2.47-4.491a20.363,20.363,0,0,1-10.07-7.634l-10.363,6.529,6.494-11.814c-6.011-7.22-14.128-11.641-23.041-11.641-10.709,0-20.226,6.356-26.392,16.27a19.707,19.707,0,0,1-17.427,9.4h-.57c-11.814,0-21.383,13.386-21.383,29.9s9.568,29.915,21.383,29.915a16.218,16.218,0,0,0,7.444-1.865,30.848,30.848,0,0,1,25.908-.518,26.858,26.858,0,0,0,22,0,30.951,30.951,0,0,1,25.666.5,16.062,16.062,0,0,0,7.358,1.831c11.814,0,21.383-13.4,21.383-29.915A37.877,37.877,0,0,0,932.647,263.35Z" transform="translate(496.257 -116.243)" fill="#6c63ff" opacity="0.1"/>
    <path id="Path_280" data-name="Path 280" d="M471.155,279.989a22.177,22.177,0,0,0-12.833,1.4,18.861,18.861,0,0,1-15.389,0,21.555,21.555,0,0,0-18.118.363,11.434,11.434,0,0,1-5.182,1.3c-7.341,0-13.455-7.392-14.733-17.151a14.371,14.371,0,0,0,3.679-3.955c4.3-6.909,10.968-11.4,18.464-11.4s14.077,4.4,18.377,11.261a14.146,14.146,0,0,0,12.211,6.7h.19C463.624,268.468,468.685,273.166,471.155,279.989Z" transform="translate(204.625 -98.442)" fill="#6c63ff" opacity="0.1"/>
    <path id="Path_281" data-name="Path 281" d="M493.537,260.855l-11.866,7.531,7.2-13.109a11.658,11.658,0,0,0-7.168-2.556H481.5a12.938,12.938,0,0,1-2.453-.19l-4.024,2.556,1.727-3.144a14.336,14.336,0,0,1-7.047-5.337l-7.2,4.56,4.56-8.256a21.089,21.089,0,0,0-16.132-8.17c-7.5,0-14.163,4.456-18.464,11.4a13.818,13.818,0,0,1-12.211,6.581h-.4c-8.273,0-14.975,9.361-14.975,20.934s6.7,20.934,14.975,20.934a11.226,11.226,0,0,0,5.182-1.313,21.59,21.59,0,0,1,18.1-.345,18.551,18.551,0,0,0,15.406.1,21.659,21.659,0,0,1,17.963.345,11.193,11.193,0,0,0,5.182,1.278c8.256,0,14.957-9.379,14.957-20.934A26.478,26.478,0,0,0,493.537,260.855Z" transform="translate(204.611 -109.932)" fill="#6c63ff" opacity="0.1"/>
    <path id="Path_282" data-name="Path 282" d="M321.59,358.4a22.143,22.143,0,0,1,12.816,1.4,18.9,18.9,0,0,0,15.406,0,21.624,21.624,0,0,1,18.118.345,11.174,11.174,0,0,0,5.182,1.313c7.341,0,13.455-7.41,14.716-17.168a14.077,14.077,0,0,1-3.662-3.955c-4.318-6.909-10.985-11.382-18.464-11.382s-14.077,4.387-18.395,11.261a14.146,14.146,0,0,1-12.194,6.7h-.19C329.1,346.947,324.025,351.628,321.59,358.4Z" transform="translate(144.043 -41.423)" fill="#6c63ff" opacity="0.1"/>
    <path id="Path_283" data-name="Path 283" d="M309.919,339.288l11.883,7.531-7.22-13.092a11.727,11.727,0,0,1,7.185-2.574h.19a14.715,14.715,0,0,0,2.47-.173l4.024,2.539-1.727-3.126a14.319,14.319,0,0,0,7.03-5.337l7.2,4.56-4.491-8.273A21.071,21.071,0,0,1,352.6,313.19c7.479,0,14.163,4.456,18.464,11.4a13.817,13.817,0,0,0,12.194,6.581h.415c8.256,0,14.957,9.379,14.957,20.934s-6.7,20.934-14.957,20.934a11.21,11.21,0,0,1-5.182-1.3,21.555,21.555,0,0,0-18.118-.363,18.758,18.758,0,0,1-7.738,1.727,19,19,0,0,1-7.669-1.624,21.624,21.624,0,0,0-17.945.345,11.192,11.192,0,0,1-5.182,1.278c-8.273,0-14.975-9.361-14.975-20.934a26.669,26.669,0,0,1,3.057-12.885Z" transform="translate(133.33 -52.883)" fill="#6c63ff" opacity="0.1"/>
    <path id="Path_284" data-name="Path 284" d="M724.47,730.321c4.508-8.36-.6-18.585-6.477-26.029s-13.058-15.2-12.9-24.681c.225-13.628,14.7-21.694,26.253-28.913a128.328,128.328,0,0,0,23.576-19,34.765,34.765,0,0,0,7.237-9.707c2.4-5.32,2.332-11.4,2.176-17.272q-.743-29.172-2.884-58.31" transform="translate(422.919 116.712)" fill="none" stroke="#3f3d56" stroke-miterlimit="10" stroke-width="4"/>
    <path id="Path_285" data-name="Path 285" d="M768.344,554.389a21.261,21.261,0,0,0-10.622-17.427l-4.767,9.413.156-11.4a21.262,21.262,0,1,0,15.234,19.414Z" transform="translate(438.012 107.766)" fill="#6c63ff"/>
    <path id="Path_286" data-name="Path 286" d="M745.4,642.14a21.262,21.262,0,0,1-40.14-8.636,20.728,20.728,0,0,1,1.382-8.636,21.279,21.279,0,0,1,39.725.225l-13.282,10.812,14.612-3.454A21.141,21.141,0,0,1,745.4,642.14Z" transform="translate(423.024 163.924)" fill="#6c63ff"/>
    <path id="Path_287" data-name="Path 287" d="M731.784,623.169a21.262,21.262,0,0,1-6.736-41.712l-.121,8.757,4.819-9.534h0a21.268,21.268,0,1,1,1.986,42.489Z" transform="translate(426.141 141.615)" fill="#6c63ff"/>
    <path id="Path_288" data-name="Path 288" d="M761.714,603.272a21.262,21.262,0,1,1,9.4-39.725l-3.748,10.363,7.651-7.565a21.262,21.262,0,0,1-13.369,36.91Z" transform="translate(447.837 127.159)" fill="#6c63ff"/>
    <path id="Path_289" data-name="Path 289" d="M765.491,555.144c-4.905.535-9.672,2.055-14.612,2.366s-10.363-.881-13.438-4.7A68.156,68.156,0,0,1,733.5,545.9a15.133,15.133,0,0,0-5.354-5.043,21.262,21.262,0,1,0,39.725,14.129C767.1,555.006,766.285,555.057,765.491,555.144Z" transform="translate(437.998 112.676)" opacity="0.1"/>
    <path id="Path_290" data-name="Path 290" d="M761.675,598.149A21.262,21.262,0,0,1,741.45,567.82a15.736,15.736,0,0,1,4.266,4.283,72.032,72.032,0,0,0,4.214,7.03c3.316,3.886,8.981,5.182,14.111,4.922s10.087-1.727,15.2-2.159c.708,0,1.416-.1,2.142-.121a21.262,21.262,0,0,1-19.707,16.374Z" transform="translate(447.876 132.281)" opacity="0.1"/>
    <path id="Path_291" data-name="Path 291" d="M731.781,617.872a21.262,21.262,0,0,1-20.4-29.932,17.271,17.271,0,0,1,4.508,4.318,71.236,71.236,0,0,0,4.612,7.168c3.575,3.99,9.62,5.406,15.044,5.181s10.363-1.4,15.545-1.727a21.3,21.3,0,0,1-19.31,14.992Z" transform="translate(426.145 146.912)" opacity="0.1"/>
    <path id="Path_292" data-name="Path 292" d="M745.4,636.442a21.262,21.262,0,0,1-40.14-8.636,20.728,20.728,0,0,1,1.382-8.636,21.229,21.229,0,0,1,4.664,4.162c2.021,2.453,3.351,5.182,5.7,7.548,4.335,4.266,11.365,6.028,17.6,6.183a89.312,89.312,0,0,0,10.795-.622Z" transform="translate(423.024 169.622)" opacity="0.1"/>
    <path id="Path_293" data-name="Path 293" d="M114.47,658.321c4.508-8.36-.6-18.585-6.477-26.029s-13.058-15.234-12.9-24.682c.225-13.628,14.7-21.693,26.253-28.913a128.333,128.333,0,0,0,23.576-19,34.77,34.77,0,0,0,7.237-9.707c2.4-5.32,2.332-11.4,2.176-17.272q-.76-29.172-2.884-58.31" transform="translate(-20.666 64.354)" fill="none" stroke="#3f3d56" stroke-miterlimit="10" stroke-width="4"/>
    <path id="Path_294" data-name="Path 294" d="M158.344,482.389a21.261,21.261,0,0,0-10.622-17.427l-4.767,9.413.155-11.4a21.262,21.262,0,1,0,15.234,19.414Z" transform="translate(-5.574 55.408)" fill="#6c63ff"/>
    <path id="Path_295" data-name="Path 295" d="M135.4,570.14a21.262,21.262,0,0,1-40.14-8.636,20.727,20.727,0,0,1,1.382-8.636,21.279,21.279,0,0,1,39.725.224l-13.282,10.812,14.612-3.454a21.142,21.142,0,0,1-2.3,9.69Z" transform="translate(-20.562 111.566)" fill="#6c63ff"/>
    <path id="Path_296" data-name="Path 296" d="M121.784,551.169a21.262,21.262,0,0,1-6.736-41.712l-.121,8.757,4.819-9.534h0a21.268,21.268,0,1,1,1.986,42.489Z" transform="translate(-17.444 89.258)" fill="#6c63ff"/>
    <path id="Path_297" data-name="Path 297" d="M151.714,531.272a21.262,21.262,0,1,1,9.4-39.725l-3.748,10.363,7.651-7.565a21.262,21.262,0,0,1-13.368,36.91Z" transform="translate(4.251 74.801)" fill="#6c63ff"/>
    <path id="Path_298" data-name="Path 298" d="M155.491,483.144c-4.905.535-9.672,2.055-14.612,2.366s-10.363-.881-13.438-4.7A68.181,68.181,0,0,1,123.5,473.9a15.13,15.13,0,0,0-5.354-5.043,21.262,21.262,0,1,0,39.725,14.128C157.1,483.006,156.285,483.057,155.491,483.144Z" transform="translate(-5.588 60.318)" opacity="0.1"/>
    <path id="Path_299" data-name="Path 299" d="M151.675,526.149A21.262,21.262,0,0,1,131.45,495.82a15.735,15.735,0,0,1,4.266,4.283,72.048,72.048,0,0,0,4.214,7.03c3.316,3.886,8.981,5.181,14.111,4.922s10.087-1.727,15.2-2.159c.708,0,1.416-.1,2.142-.121A21.262,21.262,0,0,1,151.675,526.149Z" transform="translate(4.29 79.923)" opacity="0.1"/>
    <path id="Path_300" data-name="Path 300" d="M121.781,545.872a21.262,21.262,0,0,1-20.4-29.932,17.273,17.273,0,0,1,4.508,4.318,71.222,71.222,0,0,0,4.612,7.168c3.575,3.99,9.62,5.406,15.044,5.182s10.363-1.4,15.545-1.727A21.3,21.3,0,0,1,121.781,545.872Z" transform="translate(-17.441 94.554)" opacity="0.1"/>
    <path id="Path_301" data-name="Path 301" d="M135.4,564.442a21.262,21.262,0,0,1-40.14-8.636,20.727,20.727,0,0,1,1.382-8.636,21.23,21.23,0,0,1,4.663,4.163c2.021,2.453,3.351,5.182,5.7,7.548,4.335,4.266,11.365,6.028,17.6,6.183a89.276,89.276,0,0,0,10.795-.622Z" transform="translate(-20.562 117.264)" opacity="0.1"/>
    <path id="Path_302" data-name="Path 302" d="M529.327,575.937c-4.508-8.342.6-18.567,6.494-26.011s13.04-15.2,12.885-24.682c-.207-13.645-14.681-21.693-26.253-28.913a127.812,127.812,0,0,1-23.559-19,34.161,34.161,0,0,1-7.254-9.69c-2.384-5.337-2.315-11.4-2.176-17.272q.777-29.172,2.884-58.31" transform="translate(266.078 4.47)" fill="none" stroke="#3f3d56" stroke-miterlimit="10" stroke-width="4"/>
    <path id="Path_303" data-name="Path 303" d="M478.4,400.028A21.244,21.244,0,0,1,489,382.6l4.767,9.413-.138-11.4a21.8,21.8,0,0,1,7-.846,21.262,21.262,0,1,1-22.229,20.26Z" transform="translate(258.057 -4.482)" fill="#6c63ff"/>
    <path id="Path_304" data-name="Path 304" d="M501.329,487.852a21.262,21.262,0,1,0-1.019-17.116l13.282,10.812-14.612-3.454a21.142,21.142,0,0,0,2.349,9.759Z" transform="translate(273.039 51.603)" fill="#6c63ff"/>
    <path id="Path_305" data-name="Path 305" d="M514.953,468.81a21.262,21.262,0,0,0,6.753-41.712l.1,8.757-4.819-9.534h0a21.262,21.262,0,0,0-22.281,20.191,21,21,0,0,0,.915,7.254,21.244,21.244,0,0,0,19.327,15.044Z" transform="translate(269.916 29.365)" fill="#6c63ff"/>
    <path id="Path_306" data-name="Path 306" d="M485.1,448.892a21.262,21.262,0,1,0-9.413-39.725l3.765,10.363-7.738-7.41A21.089,21.089,0,0,0,464.8,426.8a20.566,20.566,0,0,0,.535,5.855A21.245,21.245,0,0,0,485.1,448.892Z" transform="translate(248.165 14.895)" fill="#6c63ff"/>
    <path id="Path_307" data-name="Path 307" d="M481.054,400.784c4.905.535,9.672,2.055,14.595,2.366s10.363-.881,13.455-4.7a68.034,68.034,0,0,0,3.921-6.909A15.182,15.182,0,0,1,518.4,386.5a21.262,21.262,0,1,1-39.725,14.111C479.447,400.628,480.242,400.7,481.054,400.784Z" transform="translate(258.27 0.427)" opacity="0.1"/>
    <path id="Path_308" data-name="Path 308" d="M484.837,443.769a21.279,21.279,0,0,0,20.225-30.329,15.806,15.806,0,0,0-4.283,4.284,72.061,72.061,0,0,1-4.214,7.03c-3.3,3.886-8.964,5.182-14.094,4.923s-10.087-1.727-15.2-2.159c-.708,0-1.434-.1-2.142-.121a21.244,21.244,0,0,0,19.707,16.374Z" transform="translate(248.424 20.017)" opacity="0.1"/>
    <path id="Path_309" data-name="Path 309" d="M514.55,463.512a21.245,21.245,0,0,0,20.4-29.932,16.978,16.978,0,0,0-4.491,4.318,71.21,71.21,0,0,1-4.612,7.168c-3.593,3.99-9.62,5.406-15.061,5.182s-10.363-1.4-15.545-1.727a21.244,21.244,0,0,0,19.31,14.992Z" transform="translate(270.32 34.663)" opacity="0.1"/>
    <path id="Path_310" data-name="Path 310" d="M500.34,482.082a21.262,21.262,0,0,0,38.775-17.272,20.415,20.415,0,0,0-4.663,4.163c-2.021,2.453-3.454,5.182-5.7,7.548-4.352,4.266-11.365,6.028-17.617,6.183a93.192,93.192,0,0,1-10.795-.622Z" transform="translate(274.028 57.373)" opacity="0.1"/>
    <circle id="Ellipse_52" data-name="Ellipse 52" cx="172.65" cy="172.65" r="172.65" transform="translate(1174.092 238.993)" fill="#3f3d56"/>
    <path id="Path_311" data-name="Path 311" d="M938.975,478.469c-6.011-6.011-20.467-15.078-27.635-18.464-8.273-3.973-11.313-3.9-17.168.328-4.871,3.454-8.031,6.788-13.628,5.562s-16.685-9.586-27.41-20.277-19.051-21.711-20.243-27.393,2.09-8.774,5.579-13.645c4.214-5.855,4.335-8.9.328-17.168-3.454-7.168-12.418-21.59-18.481-27.635s-7.375-4.715-10.691-3.454a61.829,61.829,0,0,0-9.793,5.182c-6.011,4.024-9.379,7.375-11.745,12.418s-5.043,14.4,8.722,38.914a217.094,217.094,0,0,0,38.171,50.9h0a217.419,217.419,0,0,0,51.073,38.24c24.492,13.817,33.87,11.071,38.914,8.722s8.394-5.682,12.4-11.745a61.018,61.018,0,0,0,5.182-9.793C943.69,485.844,945.037,484.5,938.975,478.469Z" transform="translate(481.881 -22.299)" fill="#01e0ad"/>
    <path id="Path_312" data-name="Path 312" d="M904.485,300.86a172.719,172.719,0,1,0-.029,345.438c95.355,0,172.693-77.364,172.661-172.777A172.719,172.719,0,0,0,904.485,300.86Zm0,322.328a149.7,149.7,0,1,1,149.7-149.7,149.7,149.7,0,0,1-149.7,149.7Z" transform="translate(442.256 -61.85)" opacity="0.1"/>
    <circle id="Ellipse_53" data-name="Ellipse 53" cx="172.65" cy="172.65" r="172.65" transform="translate(777.443 501.232)" fill="#3f3d56"/>
    <path id="Path_313" data-name="Path 313" d="M742.331,522.594l-51.695,52.593a.933.933,0,0,0,0,1.347L726.908,615.1a6.241,6.241,0,1,1-8.826,8.826L682,585.5a.985.985,0,0,0-1.382,0l-8.791,8.878A38.638,38.638,0,0,1,644.192,606a39.484,39.484,0,0,1-28.119-11.952l-8.446-8.636a.985.985,0,0,0-1.382,0l-35.995,38.344a6.241,6.241,0,1,1-8.826-8.826l36.133-38.482a1.037,1.037,0,0,0,0-1.347l-51.695-52.593a.95.95,0,0,0-1.624.674V628.419a15.407,15.407,0,0,0,15.355,15.355h169.04a15.406,15.406,0,0,0,15.354-15.355V523.268a.95.95,0,0,0-1.658-.674Z" transform="translate(305.952 99.127)" fill="#01e0ad"/>
    <path id="Path_314" data-name="Path 314" d="M641.661,600.492a26.149,26.149,0,0,0,18.861-7.772l75.288-76.635a15.026,15.026,0,0,0-9.5-3.454H557.15a14.922,14.922,0,0,0-9.5,3.454l75.305,76.635A26.046,26.046,0,0,0,641.661,600.492Z" transform="translate(308.432 92.147)" fill="#01e0ad"/>
    <path id="Path_315" data-name="Path 315" d="M673.575,452.69a172.719,172.719,0,1,0-.029,345.438c95.355,0,172.693-77.364,172.661-172.777A172.719,172.719,0,0,0,673.575,452.69Zm0,322.328a149.7,149.7,0,1,1,149.7-149.7,149.7,149.7,0,0,1-149.7,149.7Z" transform="translate(274.341 48.56)" opacity="0.1"/>
    <circle id="Ellipse_54" data-name="Ellipse 54" cx="172.65" cy="172.65" r="172.65" transform="translate(367.701 372.298)" fill="#3f3d56"/>
    <path id="Path_316" data-name="Path 316" d="M393.829,430.16,325,588.958l6.425,6.425,62.421-27.532,62.421,27.532,6.425-6.425Z" transform="translate(146.523 32.176)" fill="#01e0ad"/>
    <path id="Path_317" data-name="Path 317" d="M437.605,378a172.618,172.618,0,1,0,.029,0Zm0,322.328a123.207,123.207,0,1,1,.017.069Z" transform="translate(102.746 -5.754)" opacity="0.1"/>
    <path id="Path_318" data-name="Path 318" d="M875.641,635.455q-2.349-5.734-4.819-11.434a33.94,33.94,0,0,0-5.89-10.173,10.775,10.775,0,0,0-3.454-2.591,14.73,14.73,0,0,0-4.508-.9,35.986,35.986,0,0,0-7.082-.19c-.915-.276-1.952-.639-2.971-1.054A24.665,24.665,0,0,0,865.3,586.23v-1.053a24.613,24.613,0,0,0-24.509-24.716,24.181,24.181,0,0,0-12.868,3.679,23.092,23.092,0,0,0-25.908,12.487,28.551,28.551,0,0,0-8.809,21.244v1.088c.449,13.42,9.12,24.181,20.07,25.269a11.5,11.5,0,0,0-3.178,2.124c-3.351,3.23-3.9,8.36-4.266,13.023l-.259,3.454-5.8,2.073a1.071,1.071,0,0,0-.259,1.883l5.544,3.955v.985a4.316,4.316,0,0,0,.1,1.123,7.928,7.928,0,0,0-2.142,3.057,14.129,14.129,0,0,0-.5,5.6l.207,4.819a37.843,37.843,0,0,0,1.468,10.726c.726,2.142,3.869,7.306,6.132,7.341-2.09,9.5-2.643,29.535-2.643,29.535-.259.259.466.5,1.727.708,1.243,9.534,5.3,36.271,12.5,48.033a101.292,101.292,0,0,1,2.712,11.676s2.055,25.407,4.767,32.955c2.314,6.425,4.145,22.281,4.646,26.875a2.642,2.642,0,0,0-1.917,1.969c-1.364,4.111-10.208,10.363-10.208,10.363a42.755,42.755,0,0,0-7.634,4.888c-2.781,2.5-2.677,4.767,9.672,3.351,23.835-2.746,27.911-10.363,27.911-10.363s-.38-1.278-.95-2.936a31.876,31.876,0,0,0-3.126-7.375c-.345-.328-.691.225-1.105,1.088a147.89,147.89,0,0,1-1.624-33.352s.674-11.676-2.729-19.915a37.7,37.7,0,0,1,0-13.04c1.364-5.492-5.441-32.281-5.441-32.281l-3.9-19.724a5.665,5.665,0,0,1,1.088,2.3l.1.4.1.57a1.07,1.07,0,0,0,.276.535c2.66,11.054,9.949,41.677,9.949,46.168,0,5.492,6.805,19.224,6.805,19.224s2.712,22.661,7.479,31.573c3.627,6.788,3.714,16.737,3.541,21.124h0s-.812,5.648-2.176,7.012a16.682,16.682,0,0,0-2.573,4.473l-.155.328s-2.038,4.128-.674,4.819a33.455,33.455,0,0,0,16.339,2.055s2.729-3.455,2.729-4.8a21.6,21.6,0,0,0-.311-2.453c-.5-3.247-1.434-8.36-1.451-8.411.57-2.211-1.727-8.36-1.727-8.36l-.691-19.224a88.74,88.74,0,0,0-4.767-38.465s-3.454-12.349-2.712-15.786-1.365-39.829-1.365-39.829l-.207-.518a39.34,39.34,0,0,1,.207-7.721c.674-8.239-2.038-25.407-2.729-26.081a22.625,22.625,0,0,1-.967-5.682c.155-1.434.622-5.631,1.261-10.847a194.972,194.972,0,0,0,20.07-1.727,2.5,2.5,0,0,0,1.727-.691,2.418,2.418,0,0,0,.4-1.4C883.345,655.075,879.562,645.023,875.641,635.455Zm-13.7,21.78c.708-4.922,1.468-9.689,2.228-13.23l.1.311a96.092,96.092,0,0,1,3.282,10.881A37,37,0,0,1,861.945,657.234Z" transform="translate(486.99 126.929)" fill="url(#linear-gradient)"/>
    <path id="Path_319" data-name="Path 319" d="M802.37,649.247s4.076,36.668,12.9,50.918a98.825,98.825,0,0,1,2.712,11.538s2.038,25.113,4.75,32.575,4.75,27.842,4.75,27.842,9.5,10.847,12.9,2.038a143.051,143.051,0,0,1-2.038-35.3s.674-11.538-2.712-19.69a36.824,36.824,0,0,1,0-12.885c1.347-5.441-5.441-31.9-5.441-31.9L824.772,647.9Z" transform="translate(493.661 190.514)" fill="#be6f72"/>
    <path id="Path_320" data-name="Path 320" d="M843.527,729.264s-4.076,7.461-27.825,10.173c-12.332,1.4-12.418-.829-9.638-3.316a43,43,0,0,1,7.6-4.836s8.826-6.1,10.173-10.173,6.114-.674,6.114-.674c6.788,10.173,8.152-2.729,9.5-1.364a30.628,30.628,0,0,1,3.126,7.271C843.147,727.985,843.527,729.264,843.527,729.264Z" transform="translate(495.27 242.196)" fill="#ff6f61"/>
    <path id="Path_321" data-name="Path 321" d="M843.527,726.159s-4.076,7.461-27.825,10.173c-12.332,1.4-12.418-.829-9.638-3.316,1.934,1.226,5.838,1.727,13.7-1.434,11.313-4.629,19.517-7.306,22.816-8.342C843.147,724.881,843.527,726.159,843.527,726.159Z" transform="translate(495.27 245.301)" opacity="0.1"/>
    <path id="Path_322" data-name="Path 322" d="M830.894,738.854s.674-11.538-2.712-19.69a36.82,36.82,0,0,1,0-12.885c1.347-5.441-5.441-31.9-5.441-31.9L817.318,647.9l-4.7.276,5.372,26.2s6.788,26.461,5.441,31.9a36.82,36.82,0,0,0,0,12.885c3.454,8.152,2.712,19.69,2.712,19.69a143.037,143.037,0,0,0,2.038,35.3,5.943,5.943,0,0,1-1.969,2.8c2.522,1.14,5.182,1.088,6.719-2.8A143.053,143.053,0,0,1,830.894,738.854Z" transform="translate(501.115 190.514)" opacity="0.1"/>
    <path id="Path_323" data-name="Path 323" d="M840.647,562.42a24.182,24.182,0,0,0-12.816,3.644,23.058,23.058,0,0,0-25.908,12.349,28.118,28.118,0,0,0-8.792,21c0,14.439,9.724,26.132,21.711,26.132,8.636,0,16.2-6.149,19.673-15.044a23.834,23.834,0,0,0,6.114.795,24.44,24.44,0,1,0,0-48.88Z" transform="translate(486.94 128.354)" fill="#3f3d56"/>
    <path id="Path_324" data-name="Path 324" d="M843.715,650.65l2.038,5.423s2.038,35.977,1.347,39.38S849.829,711,849.829,711a86.894,86.894,0,0,1,4.75,38l.674,19s2.712,7.461,1.365,8.826-11.59-1.209-11.59-1.209,1.365-14.249-3.454-23.075-7.461-31.228-7.461-31.228-6.788-13.576-6.788-19-10.864-49.553-10.864-49.553Z" transform="translate(503.908 192.514)" fill="#be6f72"/>
    <path id="Path_325" data-name="Path 325" d="M801.6,668.251s.691-24.44,3.454-31.9a50.654,50.654,0,0,0,3.023-10.83s41.09,7.427,44.492,4.715c0,0,.674,9.5,1.364,10.173s3.454,17.652,2.712,25.8,0,8.135,0,8.135-27.842,4.076-28.516,0-2.712-4.059-2.712-4.059S800.255,669.529,801.6,668.251Z" transform="translate(493.065 174.24)" fill="#3f3d56"/>
    <g id="Group_14" data-name="Group 14" transform="translate(1294.666 804.475)" opacity="0.1">
      <path id="Path_326" data-name="Path 326" d="M823.982,650.849s-17.168-.466-22.35-1.4v1.4c-1.347,1.347,23.766,2.038,23.766,2.038a1.728,1.728,0,0,1,.933.38C825.416,650.849,823.982,650.849,823.982,650.849Z" transform="translate(-801.58 -612.834)"/>
      <path id="Path_327" data-name="Path 327" d="M842.8,638.423c-.691-.674-1.365-10.173-1.365-10.173a2.917,2.917,0,0,1-1.157.414c.242,2.867.708,7.272,1.157,7.721s3.454,17.652,2.712,25.8,0,8.135,0,8.135-22.022,3.23-27.359,1.071a8.185,8.185,0,0,0,.207.967c.674,4.076,28.516,0,28.516,0s-.691,0,0-8.135S843.475,639.114,842.8,638.423Z" transform="translate(-790.519 -628.25)"/>
      <path id="Path_328" data-name="Path 328" d="M823.982,650.849s-17.168-.466-22.35-1.4v1.4c-1.347,1.347,23.766,2.038,23.766,2.038a1.728,1.728,0,0,1,.933.38C825.416,650.849,823.982,650.849,823.982,650.849Z" transform="translate(-801.58 -612.834)"/>
      <path id="Path_329" data-name="Path 329" d="M842.8,638.423c-.691-.674-1.365-10.173-1.365-10.173a2.917,2.917,0,0,1-1.157.414c.242,2.867.708,7.272,1.157,7.721s3.454,17.652,2.712,25.8,0,8.135,0,8.135-22.022,3.23-27.359,1.071a8.185,8.185,0,0,0,.207.967c.674,4.076,28.516,0,28.516,0s-.691,0,0-8.135S843.475,639.114,842.8,638.423Z" transform="translate(-790.519 -628.25)"/>
    </g>
    <path id="Path_330" data-name="Path 330" d="M825.052,590.118a9,9,0,0,0,2.591,3.351,5.8,5.8,0,0,0,2.435,1.054c-1.52.881-3.178,1.537-4.7,2.418a83.546,83.546,0,0,0-6.909,5.182,14.057,14.057,0,0,1-7.928,3.075,9.707,9.707,0,0,0,1.105-9.655,9.018,9.018,0,0,1-1.209-3.351c0-1.952,1.727-3.454,3.333-4.491,1.3-.881,2.625-1.727,3.973-2.574,1.054-.656,2.643-2.038,3.972-1.986s1.485,1.226,1.727,2.435A19.149,19.149,0,0,0,825.052,590.118Z" transform="translate(499.53 143.421)" fill="#be6f72"/>
    <path id="Path_331" data-name="Path 331" d="M825.052,590.118a9,9,0,0,0,2.591,3.351,5.8,5.8,0,0,0,2.435,1.054c-1.52.881-3.178,1.537-4.7,2.418a83.546,83.546,0,0,0-6.909,5.182,14.057,14.057,0,0,1-7.928,3.075,9.707,9.707,0,0,0,1.105-9.655,9.018,9.018,0,0,1-1.209-3.351c0-1.952,1.727-3.454,3.333-4.491,1.3-.881,2.625-1.727,3.973-2.574,1.054-.656,2.643-2.038,3.972-1.986s1.485,1.226,1.727,2.435A19.149,19.149,0,0,0,825.052,590.118Z" transform="translate(499.53 143.421)" opacity="0.1"/>
    <circle id="Ellipse_55" data-name="Ellipse 55" cx="15.614" cy="15.614" r="15.614" transform="translate(1324.875 742.365)" fill="#be6f72"/>
    <path id="Path_332" data-name="Path 332" d="M849.077,736.438c0,1.365-2.712,4.75-2.712,4.75a33.612,33.612,0,0,1-16.287-2.038c-1.364-.674.674-4.75.674-4.75l.155-.328a16.479,16.479,0,0,1,2.574-4.422c1.347-1.347,2.159-6.909,2.159-6.909,4.214-6.909,11.693,2.988,11.693,2.988s.95,5.182,1.451,8.325A23.688,23.688,0,0,1,849.077,736.438Z" transform="translate(513.468 243.157)" fill="#ff6f61"/>
    <path id="Path_333" data-name="Path 333" d="M849.077,730.658c0,1.365-2.712,4.75-2.712,4.75a33.611,33.611,0,0,1-16.287-2.038c-1.364-.674.674-4.75.674-4.75l.155-.328a32.82,32.82,0,0,0,14.785,3.04l3.092-3.092C848.956,729.4,849.077,730.313,849.077,730.658Z" transform="translate(513.468 248.937)" opacity="0.1"/>
    <circle id="Ellipse_56" data-name="Ellipse 56" cx="15.268" cy="15.268" r="15.268" transform="translate(1293.993 710.119)" fill="#be6f72"/>
    <path id="Path_334" data-name="Path 334" d="M804.982,601.86c-3.351,3.2-3.9,8.256-4.249,12.868l-.518,6.753a34.078,34.078,0,0,0-.121,5.475c0,1.123.276,2.263.38,3.454s.138,2.694.156,4.059v9.983a11.779,11.779,0,0,0,1.106,5.993,4.076,4.076,0,0,0,5.182,1.866,5.907,5.907,0,0,0,2.142-3.316,51.557,51.557,0,0,0,3.454-12.643c.138-1.5.155-3.005.294-4.508s.4-3.074.622-4.594c.967-6.356,1.4-12.781,1.831-19.189.121-1.9,1.831-9.379-.656-10.208-1.209-.4-3.714.846-4.871,1.261a13.713,13.713,0,0,0-4.75,2.746Z" transform="translate(491.964 154.064)" fill="#be6f72"/>
    <path id="Path_335" data-name="Path 335" d="M804.982,601.86c-3.351,3.2-3.9,8.256-4.249,12.868l-.518,6.753a34.078,34.078,0,0,0-.121,5.475c0,1.123.276,2.263.38,3.454s.138,2.694.156,4.059v9.983a11.779,11.779,0,0,0,1.106,5.993,4.076,4.076,0,0,0,5.182,1.866,5.907,5.907,0,0,0,2.142-3.316,51.557,51.557,0,0,0,3.454-12.643c.138-1.5.155-3.005.294-4.508s.4-3.074.622-4.594c.967-6.356,1.4-12.781,1.831-19.189.121-1.9,1.831-9.379-.656-10.208-1.209-.4-3.714.846-4.871,1.261a13.713,13.713,0,0,0-4.75,2.746Z" transform="translate(491.964 154.064)" opacity="0.1"/>
    <path id="Path_336" data-name="Path 336" d="M833.418,588.16s-11.538,8.826-18.326,10.864c0,0-4.024,4.594-4.715,5.7s-2.073,13.3-3.454,16.028-4.75,8.826,0,14.923c0,0,1.347,6.114.674,8.152s-3.143,9.5-.9,9.845,9.05,5.078,15.148,3.731,28.861,5.182,28.861,5.182,3.765-34.976,6.494-41.159l-6.114-2.038S834.126,609.214,844.3,593.6C844.282,593.6,834.748,591.563,833.418,588.16Z" transform="translate(495.188 147.072)" fill="#ff6f61"/>
    <path id="Path_337" data-name="Path 337" d="M797.023,613.682l14.025,9.931a1.036,1.036,0,0,0,1.226,0l3.8-2.85a1.071,1.071,0,0,0,0-1.623l-10.795-9.586a1.036,1.036,0,0,0-1.054-.207l-6.926,2.487a1.054,1.054,0,0,0-.276,1.848Z" transform="translate(489.457 162.433)" fill="#3f3d56"/>
    <path id="Path_338" data-name="Path 338" d="M800.312,640.4a37.587,37.587,0,0,1-1.468-10.588l-.207-4.784a13.816,13.816,0,0,1,.5-5.527,9.033,9.033,0,0,1,5.821-5.1,20.1,20.1,0,0,1,7.927-.57,2.038,2.038,0,0,1,1.019.276,1.9,1.9,0,0,1,.553.933,6.252,6.252,0,0,1,.311,4.991,5.182,5.182,0,0,1-1.589,1.641c-1.883,1.347-4.076,2.245-5.855,3.713a2.123,2.123,0,0,0-.795,1,2.33,2.33,0,0,0,0,1.088,17.405,17.405,0,0,0,.9,2.781,2.746,2.746,0,0,0,.777,1.174c.328.276.76.38,1.105.639.743.6,2.3,1.4,2.211,2.349-.259,3.454-2.332,7.323-3.144,10.743C806.823,651.854,801.313,643.322,800.312,640.4Z" transform="translate(490.884 165.627)" fill="#be6f72"/>
    <g id="Group_15" data-name="Group 15" transform="translate(1312.63 767.479)" opacity="0.1">
      <path id="Path_339" data-name="Path 339" d="M812.36,628.319h-.38a11.627,11.627,0,0,0,4.439,0h.432a15.548,15.548,0,0,0-4.491,0Z" transform="translate(-811.98 -591.322)"/>
      <path id="Path_340" data-name="Path 340" d="M835.637,606.83c-2.435,5.475-6.028,35.131-6.667,41.021,2.384.622,3.955,1.071,3.955,1.071s3.731-34.889,6.46-41.073Z" transform="translate(-799.625 -606.83)"/>
    </g>
    <path id="Path_341" data-name="Path 341" d="M840.428,609.449a5.182,5.182,0,0,0,2.228,3.368,29.9,29.9,0,0,1,3.955,4.007,28.372,28.372,0,0,1,3.921,7.859,96.278,96.278,0,0,1,3.265,10.743c-8.636,4.007-18.447,3.817-27.635,6.46a22.057,22.057,0,0,0-10.363,6.132,14.283,14.283,0,0,0-3.817,11.244,1.465,1.465,0,0,0,.207.674,1.45,1.45,0,0,0,1.209.484,10.362,10.362,0,0,0,6.339-2.176,30.171,30.171,0,0,0,4.853-4.767,7.807,7.807,0,0,1,3.454-2.556c4.992-1.52,10.363-1.434,15.545-1.52a195.907,195.907,0,0,0,23.162-1.831,1.866,1.866,0,0,0,2.073-2.073c.76-10.19-3.023-20.139-6.909-29.587q-2.332-5.682-4.8-11.313a33.51,33.51,0,0,0-5.873-10.052,10.363,10.363,0,0,0-3.454-2.556,14.61,14.61,0,0,0-4.629-.864,32.826,32.826,0,0,0-7.582-.138,16.154,16.154,0,0,0-.726,3.921c.138,4.664,2.176,9.033,4.18,13.248C839.288,608.793,840.031,608.828,840.428,609.449Z" transform="translate(500.597 149.013)" fill="#be6f72"/>
    <path id="Path_342" data-name="Path 342" d="M813.138,606.67a12.658,12.658,0,0,0-1.727,6.6,8.888,8.888,0,0,0,.432,2.694,8.739,8.739,0,0,0,5.51,5.182" transform="translate(500.234 160.532)" fill="none" stroke="#000" stroke-miterlimit="10" stroke-width="1" opacity="0.1"/>
    <path id="Path_343" data-name="Path 343" d="M830.662,576.111a7.925,7.925,0,0,0-2.5.4c-2.263-3.454-7.583-5.838-13.818-5.838-8.256,0-14.94,4.266-14.94,9.517s6.684,9.5,14.94,9.5a21.016,21.016,0,0,0,8.964-1.9,8.135,8.135,0,1,0,7.323-11.676Z" transform="translate(491.502 134.353)" fill="#3f3d56"/>
    <path id="Path_344" data-name="Path 344" d="M831.35,587.611A8.119,8.119,0,0,1,824.026,583a21.021,21.021,0,0,1-8.963,1.9c-8.239,0-14.923-4.249-14.923-9.5a5.714,5.714,0,0,1,0-.95,6.445,6.445,0,0,0-.76,2.988c0,5.182,6.684,9.5,14.94,9.5a21.02,21.02,0,0,0,8.964-1.9,8.135,8.135,0,0,0,15.32-2.021,8.1,8.1,0,0,1-7.254,4.594Z" transform="translate(491.487 137.102)" opacity="0.1"/>
    <path id="Path_345" data-name="Path 345" d="M801.97,582.42a23.058,23.058,0,0,1,25.908-12.349,24.423,24.423,0,0,1,37.169,18.757V586.79a24.423,24.423,0,0,0-37.255-20.726,23.058,23.058,0,0,0-25.908,12.349,28.118,28.118,0,0,0-8.791,21v2.038A27.635,27.635,0,0,1,801.97,582.42Z" transform="translate(486.91 128.354)" opacity="0.1"/>
    <path id="Path_346" data-name="Path 346" d="M896.55,654.424c4.508-8.342-.6-18.585-6.494-26.029s-13.04-15.182-12.885-24.681c.207-13.628,14.681-21.676,26.253-28.913a127.648,127.648,0,0,0,23.559-19,34.426,34.426,0,0,0,7.254-9.69c2.383-5.337,2.314-11.4,2.176-17.272q-.76-29.189-2.884-58.31" transform="translate(548.054 61.533)" fill="none" stroke="#3f3d56" stroke-miterlimit="10" stroke-width="4"/>
    <path id="Path_347" data-name="Path 347" d="M940.414,478.463a21.227,21.227,0,0,0-10.605-17.41l-4.767,9.413.138-11.4a20.865,20.865,0,0,0-7-.846,21.262,21.262,0,1,0,22.229,20.243Z" transform="translate(563.139 52.563)" fill="#6c63ff"/>
    <path id="Path_348" data-name="Path 348" d="M917.483,566.306a21.262,21.262,0,1,1,1.019-17.134L905.22,559.984l14.612-3.454a21.141,21.141,0,0,1-2.349,9.776Z" transform="translate(548.159 108.647)" fill="#6c63ff"/>
    <path id="Path_349" data-name="Path 349" d="M903.873,547.241a21.262,21.262,0,0,1-6.753-41.712l-.1,8.757,4.819-9.517h0a21.268,21.268,0,1,1,1.986,42.489Z" transform="translate(551.268 86.415)" fill="#6c63ff"/>
    <path id="Path_350" data-name="Path 350" d="M933.777,527.362a21.262,21.262,0,1,1,9.413-39.725L939.425,498l7.738-7.427a21.141,21.141,0,0,1,6.909,14.681,20.522,20.522,0,0,1-.536,5.855A21.261,21.261,0,0,1,933.777,527.362Z" transform="translate(572.971 71.957)" fill="#6c63ff"/>
    <path id="Path_351" data-name="Path 351" d="M937.573,479.224c-4.905.553-9.689,2.073-14.612,2.383s-10.363-.881-13.455-4.715a66,66,0,0,1-3.921-6.909,15.287,15.287,0,0,0-5.354-5.043,21.262,21.262,0,1,0,39.725,14.111C939.162,479.086,938.368,479.137,937.573,479.224Z" transform="translate(563.13 57.468)" opacity="0.1"/>
    <path id="Path_352" data-name="Path 352" d="M933.741,522.239a21.279,21.279,0,0,1-20.226-30.329,15.734,15.734,0,0,1,4.283,4.266,68.171,68.171,0,0,0,4.214,7.03c3.3,3.9,8.964,5.181,14.094,4.94s10.087-1.727,15.2-2.159c.708,0,1.434-.121,2.142-.138a21.262,21.262,0,0,1-19.707,16.391Z" transform="translate(573.008 77.08)" opacity="0.1"/>
    <path id="Path_353" data-name="Path 353" d="M903.872,541.967A21.244,21.244,0,0,1,883.473,512a17.532,17.532,0,0,1,4.491,4.318c1.727,2.332,2.677,5.026,4.611,7.168,3.593,4.007,9.62,5.406,15.061,5.285s10.363-1.416,15.545-1.814a21.262,21.262,0,0,1-19.31,15.009Z" transform="translate(551.268 91.689)" opacity="0.1"/>
    <path id="Path_354" data-name="Path 354" d="M917.432,560.532a21.279,21.279,0,0,1-38.776-17.272,20.83,20.83,0,0,1,4.664,4.163c2.038,2.47,3.368,5.182,5.7,7.565,4.353,4.266,11.365,6.011,17.617,6.183a93.173,93.173,0,0,0,10.795-.639Z" transform="translate(548.209 114.421)" opacity="0.1"/>
    <path id="Path_355" data-name="Path 355" d="M1055.55,806.424c4.508-8.342-.6-18.585-6.494-26.029s-13.04-15.182-12.885-24.681c.207-13.628,14.681-21.676,26.253-28.913a127.648,127.648,0,0,0,23.559-19,34.428,34.428,0,0,0,7.254-9.69c2.384-5.337,2.314-11.4,2.176-17.272q-.743-29.19-2.884-58.31" transform="translate(663.677 172.065)" fill="none" stroke="#3f3d56" stroke-miterlimit="10" stroke-width="4"/>
    <path id="Path_356" data-name="Path 356" d="M1099.378,630.462a21.227,21.227,0,0,0-10.6-17.41l-4.767,9.413.138-11.4a20.858,20.858,0,0,0-6.909-.846,21.262,21.262,0,1,0,22.229,20.243Z" transform="translate(678.799 163.097)" fill="#6c63ff"/>
    <path id="Path_357" data-name="Path 357" d="M1076.483,718.305a21.262,21.262,0,1,1,1.019-17.134l-13.282,10.812,14.612-3.454a21.135,21.135,0,0,1-2.349,9.776Z" transform="translate(663.781 219.181)" fill="#6c63ff"/>
    <path id="Path_358" data-name="Path 358" d="M1062.873,699.241a21.262,21.262,0,0,1-6.753-41.712l-.1,8.757,4.819-9.517h0a21.268,21.268,0,1,1,1.986,42.489Z" transform="translate(666.891 196.948)" fill="#6c63ff"/>
    <path id="Path_359" data-name="Path 359" d="M1092.778,679.362a21.262,21.262,0,1,1,9.413-39.725L1098.425,650l7.738-7.427a21.14,21.14,0,0,1,6.909,14.681,20.533,20.533,0,0,1-.536,5.855A21.261,21.261,0,0,1,1092.778,679.362Z" transform="translate(688.594 182.49)" fill="#6c63ff"/>
    <path id="Path_360" data-name="Path 360" d="M1096.573,631.224c-4.905.553-9.689,2.073-14.612,2.384s-10.363-.881-13.455-4.715a65.933,65.933,0,0,1-3.92-6.909,15.29,15.29,0,0,0-5.355-5.043,21.262,21.262,0,1,0,39.726,14.111C1098.162,631.086,1097.368,631.137,1096.573,631.224Z" transform="translate(678.753 168.001)" opacity="0.1"/>
    <path id="Path_361" data-name="Path 361" d="M1092.741,674.239a21.279,21.279,0,0,1-20.226-30.329,15.732,15.732,0,0,1,4.283,4.266,68.2,68.2,0,0,0,4.215,7.03c3.3,3.9,8.964,5.182,14.094,4.94s10.087-1.727,15.2-2.159c.708,0,1.433-.121,2.141-.138A21.261,21.261,0,0,1,1092.741,674.239Z" transform="translate(688.631 187.613)" opacity="0.1"/>
    <path id="Path_362" data-name="Path 362" d="M1062.872,693.967a21.244,21.244,0,0,1-20.4-29.967,17.533,17.533,0,0,1,4.49,4.318c1.727,2.332,2.677,5.026,4.612,7.168,3.593,4.007,9.62,5.406,15.061,5.285s10.363-1.416,15.545-1.814A21.262,21.262,0,0,1,1062.872,693.967Z" transform="translate(666.892 202.222)" opacity="0.1"/>
    <path id="Path_363" data-name="Path 363" d="M1076.432,712.532a21.279,21.279,0,0,1-38.776-17.272,20.83,20.83,0,0,1,4.664,4.163c2.038,2.47,3.454,5.182,5.7,7.565,4.353,4.266,11.365,6.011,17.617,6.183a93.176,93.176,0,0,0,10.795-.639Z" transform="translate(663.833 224.954)" opacity="0.1"/>
    <path id="Path_364" data-name="Path 364" d="M627.5,608.33a16.944,16.944,0,0,0-6.753-13.679,19.863,19.863,0,0,0-16.6-19.483A19.828,19.828,0,0,0,590.934,560.4h0a16.848,16.848,0,0,0-2.453-.57h-2.919a19.448,19.448,0,0,0-18.792,16.616c-6.062-1.4-11.607.415-12.626,4.249a5.182,5.182,0,0,0,.173,3.074c1.036,2.971,4.4,5.821,8.912,7.22l.587.173.881.225h.19a15.271,15.271,0,0,0-1.451,6.546,15.1,15.1,0,0,0,8.135,13.472l-.4.242a5.389,5.389,0,0,0-1.313,1.831,27.387,27.387,0,0,0-2.539,6.114c-.432,1.831-.5,3.731-1.036,5.544-1,3.333-3.558,6.149-3.852,9.62-.138,1.554.121,3.454-.985,4.456a5.376,5.376,0,0,1-.881.622,7.128,7.128,0,0,0-1.917,2.021,6.7,6.7,0,0,1-1.347,1.934c-1,.743-2.643.674-3.126,1.831s.777,2.522.484,3.783-1.365,1.5-2.142,2.211a7.685,7.685,0,0,0-1.848,3.454,11.33,11.33,0,0,1-9.327-2.383,17.432,17.432,0,0,1,.967,3.454,15.129,15.129,0,0,0-5.026-2.522,15.871,15.871,0,0,1-5.354-3.972l2.867-.4-12.66-19.327-3.748-.777,3.351,6.442a2.054,2.054,0,0,0-1.14,1.364,5.855,5.855,0,0,0-.121,2.194,39.254,39.254,0,0,0,.864,5.182l.967,4.525c.086.414.19.846.311,1.261a11.9,11.9,0,0,0-3.748.415,32.617,32.617,0,0,0-7.79-1.848,4.318,4.318,0,0,0-1.727,0,4.473,4.473,0,0,0-1.641,1.33,53.112,53.112,0,0,0-5.786,8.152c-6.909,11.848-15.907,22.194-24.423,32.9-5.872,2.384-11.8,4.646-17.721,6.909l-12.747,4.871a19.327,19.327,0,0,1-7.911,1.727c-1.209,0-2.712-.259-3.454.777a7.27,7.27,0,0,0-.777,1.727l-1.313.138h0a15.094,15.094,0,0,0-3.057-5.631,1.934,1.934,0,0,0-1.434,1.105c-.311.57-.5,1.192-.864,1.727-.674,1-1.865,1.485-2.712,2.332s-1.382,2.159-2.314,3.023a9.153,9.153,0,0,1-4.335,1.727,27.364,27.364,0,0,0-6.788,2.573,10.93,10.93,0,0,1-2.5,1.157,9.411,9.411,0,0,1-2.953.1l-6.736-.5a5.323,5.323,0,0,0-1.813.086,3.455,3.455,0,0,0-2.142,3.454,5.44,5.44,0,0,0,2.142,3.714,13.711,13.711,0,0,0,3.834,1.986,112.507,112.507,0,0,0,17.963,5.32v1.365a30.659,30.659,0,0,0,13.817,3.282,2.144,2.144,0,0,0,1.036-.19,2.279,2.279,0,0,0,.864-1.347,55.566,55.566,0,0,0,2.694-13.23h0a6.908,6.908,0,0,0,2.435-.622c2.315-.639,4.629.95,7.03,1.209,2.953.328,5.682-1.4,8.48-2.453l1.209-.4a13.26,13.26,0,0,1-2.8,2.677c-1.157.829-2.453,1.451-3.575,2.315a24.63,24.63,0,0,1-3.04,2.349,19.086,19.086,0,0,1-2.332.9,15.387,15.387,0,0,0-3.333,1.727,6.753,6.753,0,0,0-2.263,2.211,3.317,3.317,0,0,0-.19,3.109,3.281,3.281,0,0,0,2.228,1.555,9.14,9.14,0,0,0,2.746,0c3.662-.276,7.306-.6,10.95-.933a29.206,29.206,0,0,0,4.577-.656c.794-.19,1.589-.449,2.383-.674a21.262,21.262,0,0,1,4.163-.622,3.453,3.453,0,0,1,1.209.121c.846.276,1.451,1.14,2.314,1.313a3.454,3.454,0,0,0,1.727-.225,38.523,38.523,0,0,1,8.1-.864c1.192,0,2.591-.294,3.143-1.4s-.449-2.884-.9-4.353a13.319,13.319,0,0,1-.38-2.867,17.947,17.947,0,0,0-2-6.805,17.758,17.758,0,0,1-1.5-3.109,78.543,78.543,0,0,0,14.906-7.565,26.651,26.651,0,0,1,8.5-4.093,23.111,23.111,0,0,1,10.674,1.243,242.861,242.861,0,0,1,24.474,8.532c3.817,1.572,7.617,3.23,11.555,4.422a18.016,18.016,0,0,0,4.111,3.99,19,19,0,0,0,8.9,2.435,116.534,116.534,0,0,0,12.522.466,21.123,21.123,0,0,0,9.327-1.727,9.586,9.586,0,0,0,1.952-1.3,7.738,7.738,0,0,0,6.149-2.263,14.905,14.905,0,0,0,4.681-7.393c1.019-3.938.242-8.636,2.66-11.779.639-.864,1.485-1.555,2.124-2.418a6.805,6.805,0,0,0,1.105-3.99.8.8,0,0,1,.1-.155,14.633,14.633,0,0,0,1.036-3.973,22.7,22.7,0,0,1,1.123-3.143,97.04,97.04,0,0,0,3.212-9.31,54.392,54.392,0,0,0,1.485-6.391c.259-1.727.414-3.454.553-5.182a32.187,32.187,0,0,1,1.572-8,65.08,65.08,0,0,0,3.627-19.137v-.38a12.833,12.833,0,0,0,11.365-13.057,13.628,13.628,0,0,0-1.192-5.579,17.271,17.271,0,0,0,2.315-8.705ZM565.7,683.41c.19.674.415,1.33.639,1.986-1.019-.984-2-2-3.023-3.005.4.138.812.259,1.192.414a6.432,6.432,0,0,1,1.14.6Zm-4.888-3.316c-5.976-5.182-12.885-9.206-19-14.232,3.333,1.641,6.581,3.558,9.793,5.389q5.717,3.264,11.589,6.27a9.483,9.483,0,0,1-2.435,2.574Zm2.539-13.058.294-.294V668.8l-1.606-.553a14.319,14.319,0,0,0,1.261-1.209Zm-52.558,13.99a49.449,49.449,0,0,0,6.356-9.068c2.366,4.128,6.218,7.116,9.482,10.588C521.363,681.873,516.077,681.3,510.792,681.027Z" transform="translate(198.098 126.471)" fill="url(#linear-gradient-2)"/>
    <path id="Path_365" data-name="Path 365" d="M415.35,438.25l3.765.76,12.833,18.982-5.648.76Z" transform="translate(302.038 318.952)" fill="#2f2e41"/>
    <path id="Path_366" data-name="Path 366" d="M414.49,645.539a73.885,73.885,0,0,0,3.765,9.793,93.236,93.236,0,0,0,12.522-3.575,39.461,39.461,0,0,0-2.608-3.455,12.884,12.884,0,0,0-3.541-2.712,9.74,9.74,0,0,0-4.3,0C418.393,645.539,416.442,645.574,414.49,645.539Z" transform="translate(211.599 188.661)" fill="#fbbebe"/>
    <path id="Path_367" data-name="Path 367" d="M438.23,652.891a7.807,7.807,0,0,1-4.283-4.871,15.685,15.685,0,0,0-3.264-5.821,1.865,1.865,0,0,0-1.451,1.088c-.311.553-.5,1.174-.846,1.727-.691.984-1.9,1.468-2.763,2.3s-1.382,2.124-2.314,2.971a9.188,9.188,0,0,1-4.37,1.727,28.341,28.341,0,0,0-6.909,2.539,11.919,11.919,0,0,1-2.539,1.14,10.055,10.055,0,0,1-2.971,0l-6.805-.484a5.311,5.311,0,0,0-1.727,0,3.3,3.3,0,0,0-2.159,3.454,5.182,5.182,0,0,0,2.159,3.662,14.34,14.34,0,0,0,3.869,1.969,113.829,113.829,0,0,0,18.239,5.182v1.347a31.573,31.573,0,0,0,13.9,3.23,2.349,2.349,0,0,0,1.036-.172,2.28,2.28,0,0,0,.864-1.347,53.889,53.889,0,0,0,2.85-14.785,11.779,11.779,0,0,0-.294-3.817c-.38-1.226.9-.708-.276-1.192" transform="translate(198.014 186.369)" fill="#2f2e41"/>
    <path id="Path_368" data-name="Path 368" d="M552.329,635.807c-20.174,1.209-40.105-4.7-60.313-5.32a29.453,29.453,0,0,0-7.5.466,37.776,37.776,0,0,0-7.427,2.884c-10.829,5.044-22.039,9.223-33.231,13.386l-12.868,4.784a19.483,19.483,0,0,1-7.962,1.727c-1.226,0-2.729-.259-3.454.76-2.09,3.109-1.105,7.651.276,11.14.449,1.123,1.209,2.349,2.418,2.47a7.027,7.027,0,0,0,2.453-.622c2.332-.622,4.663.95,7.081,1.209,2.971.311,5.734-1.382,8.55-2.418,4.663-1.727,9.741-1.727,14.647-2.487,8.2-1.365,15.821-5.182,22.937-9.517a26.773,26.773,0,0,1,8.55-4.042,23.663,23.663,0,0,1,10.76,1.226,247,247,0,0,1,24.681,8.394,115,115,0,0,0,12.885,4.715,46.632,46.632,0,0,0,28.9-1.727c3.23-1.278,6.736-3.454,6.909-7.012.121-1.986-1.434-3.731-2.453-5.441-.656-1.088-1.33-2.176-2.038-3.23C562.675,642.145,558.461,635.444,552.329,635.807Z" transform="translate(214.422 177.805)" fill="#2f2e41"/>
    <path id="Path_369" data-name="Path 369" d="M552.329,635.807c-20.174,1.209-40.105-4.7-60.313-5.32a29.453,29.453,0,0,0-7.5.466,37.776,37.776,0,0,0-7.427,2.884c-10.829,5.044-22.039,9.223-33.231,13.386l-12.868,4.784a19.483,19.483,0,0,1-7.962,1.727c-1.226,0-2.729-.259-3.454.76-2.09,3.109-1.105,7.651.276,11.14.449,1.123,1.209,2.349,2.418,2.47a7.027,7.027,0,0,0,2.453-.622c2.332-.622,4.663.95,7.081,1.209,2.971.311,5.734-1.382,8.55-2.418,4.663-1.727,9.741-1.727,14.647-2.487,8.2-1.365,15.821-5.182,22.937-9.517a26.773,26.773,0,0,1,8.55-4.042,23.663,23.663,0,0,1,10.76,1.226,247,247,0,0,1,24.681,8.394,115,115,0,0,0,12.885,4.715,46.632,46.632,0,0,0,28.9-1.727c3.23-1.278,6.736-3.454,6.909-7.012.121-1.986-1.434-3.731-2.453-5.441-.656-1.088-1.33-2.176-2.038-3.23C562.675,642.145,558.461,635.444,552.329,635.807Z" transform="translate(214.422 177.805)" opacity="0.1"/>
    <path id="Path_370" data-name="Path 370" d="M436.92,649.536q4.732,1.606,9.551,2.971c1.727-2.954,5.182-5.009,5.924-8.394a.8.8,0,0,0,0-.449.829.829,0,0,0-.363-.328,18.1,18.1,0,0,0-7.5-2.194c-2.073-.121-3.023,2.038-3.955,3.558C440.219,645.374,437.766,649.865,436.92,649.536Z" transform="translate(227.91 185.596)" fill="#fbbebe"/>
    <path id="Path_371" data-name="Path 371" d="M452.614,646.8a6.908,6.908,0,0,1-4.646-3.057c-.432-.777-.915-1.831-1.814-1.727s-1.192,1.036-1.382,1.848a51.812,51.812,0,0,1-2.608,8.964,16.822,16.822,0,0,1-5.579,7.341c-1.174.812-2.47,1.416-3.627,2.28a24.928,24.928,0,0,1-3.057,2.314,18.153,18.153,0,0,1-2.349.864,16.279,16.279,0,0,0-3.351,1.727,6.65,6.65,0,0,0-2.3,2.194,3.16,3.16,0,0,0-.173,3.057,3.264,3.264,0,0,0,2.228,1.52,9.394,9.394,0,0,0,2.781,0c3.679-.259,7.358-.587,11.037-.915a31.852,31.852,0,0,0,4.612-.639l2.4-.656a19.106,19.106,0,0,1,4.2-.622,3.263,3.263,0,0,1,1.226.121c.846.276,1.451,1.123,2.332,1.3a3.9,3.9,0,0,0,1.727-.225,38.133,38.133,0,0,1,8.17-.846c1.209,0,2.625-.311,3.178-1.382.691-1.347-.449-2.85-.915-4.3a13.815,13.815,0,0,1-.38-2.815,17.169,17.169,0,0,0-2.021-6.7c-.933-1.727-2.211-3.627-1.554-5.458a5.183,5.183,0,0,0,.622-1.883C461.112,646.124,454.307,647.177,452.614,646.8Z" transform="translate(216.637 186.228)" fill="#2f2e41"/>
    <path id="Path_372" data-name="Path 372" d="M485.576,622.268a15.753,15.753,0,0,1-8.049-7.98c-.328-.76-.6-1.572-.933-2.332a17.722,17.722,0,0,0-4.8-6.684,2.366,2.366,0,0,0-1.727-.743,1.882,1.882,0,0,0-1.3,1.4,5.338,5.338,0,0,0-.138,2.159,38.46,38.46,0,0,0,.864,5.043l.984,4.456a9.782,9.782,0,0,0,.6,1.986,6.909,6.909,0,0,0,1.641,1.952c.9.829,1.814,1.624,2.729,2.418a9.367,9.367,0,0,0,1.727,1.192,10.033,10.033,0,0,0,3.057.9,26.014,26.014,0,0,1,11.469,4.422v-3.316a4.387,4.387,0,0,0-.864-2.4A15.318,15.318,0,0,0,485.576,622.268Z" transform="translate(250.932 158.976)" fill="#fbbebe"/>
    <path id="Path_373" data-name="Path 373" d="M485.576,622.268a15.753,15.753,0,0,1-8.049-7.98c-.328-.76-.6-1.572-.933-2.332a17.722,17.722,0,0,0-4.8-6.684,2.366,2.366,0,0,0-1.727-.743,1.882,1.882,0,0,0-1.3,1.4,5.338,5.338,0,0,0-.138,2.159,38.46,38.46,0,0,0,.864,5.043l.984,4.456a9.782,9.782,0,0,0,.6,1.986,6.909,6.909,0,0,0,1.641,1.952c.9.829,1.814,1.624,2.729,2.418a9.367,9.367,0,0,0,1.727,1.192,10.033,10.033,0,0,0,3.057.9,26.014,26.014,0,0,1,11.469,4.422v-3.316a4.387,4.387,0,0,0-.864-2.4A15.318,15.318,0,0,0,485.576,622.268Z" transform="translate(250.932 158.976)" opacity="0.1"/>
    <ellipse id="Ellipse_57" data-name="Ellipse 57" cx="4.905" cy="4.94" rx="4.905" ry="4.94" transform="translate(772.676 737.27)" fill="#2f2e41"/>
    <path id="Path_374" data-name="Path 374" d="M514.729,590.542a5.3,5.3,0,0,0-3.869.553,5.374,5.374,0,0,0-1.33,1.814,26.342,26.342,0,0,0-2.556,6.01c-.432,1.727-.5,3.679-1.054,5.458-1,3.282-3.575,6.062-3.869,9.482-.138,1.537.121,3.333-1,4.37a6.353,6.353,0,0,1-.881.639,6.634,6.634,0,0,0-1.934,1.987,6.512,6.512,0,0,1-1.365,1.882c-1,.743-2.66.674-3.143,1.727s.777,2.487.484,3.731-1.382,1.485-2.159,2.176a7.547,7.547,0,0,0-1.865,3.454,11.521,11.521,0,0,1-9.4-2.332,29.913,29.913,0,0,1,1.468,10.743,4.387,4.387,0,0,1-.864,3.316,59.827,59.827,0,0,1,11.52,2,7.945,7.945,0,0,0,5.026,0,8.392,8.392,0,0,0,2.314-1.831c2.073-2.107,4.249-4.4,4.75-7.323a43.024,43.024,0,0,0,.086-4.957,27.944,27.944,0,0,1,1.261-6.028,71.73,71.73,0,0,0,2.194-12.4c.224-2.591,2.47-4.663,3.644-6.909,2.211-4.37,4.491-8.912,4.646-13.818C516.906,592.7,516.353,590.714,514.729,590.542Z" transform="translate(259.812 148.697)" fill="#2f2e41"/>
    <path id="Path_375" data-name="Path 375" d="M514.729,590.542a5.3,5.3,0,0,0-3.869.553,5.374,5.374,0,0,0-1.33,1.814,26.342,26.342,0,0,0-2.556,6.01c-.432,1.727-.5,3.679-1.054,5.458-1,3.282-3.575,6.062-3.869,9.482-.138,1.537.121,3.333-1,4.37a6.353,6.353,0,0,1-.881.639,6.634,6.634,0,0,0-1.934,1.987,6.512,6.512,0,0,1-1.365,1.882c-1,.743-2.66.674-3.143,1.727s.777,2.487.484,3.731-1.382,1.485-2.159,2.176a7.547,7.547,0,0,0-1.865,3.454,11.521,11.521,0,0,1-9.4-2.332,29.913,29.913,0,0,1,1.468,10.743,4.387,4.387,0,0,1-.864,3.316,59.827,59.827,0,0,1,11.52,2,7.945,7.945,0,0,0,5.026,0,8.392,8.392,0,0,0,2.314-1.831c2.073-2.107,4.249-4.4,4.75-7.323a43.024,43.024,0,0,0,.086-4.957,27.944,27.944,0,0,1,1.261-6.028,71.73,71.73,0,0,0,2.194-12.4c.224-2.591,2.47-4.663,3.644-6.909,2.211-4.37,4.491-8.912,4.646-13.818C516.906,592.7,516.353,590.714,514.729,590.542Z" transform="translate(259.812 148.697)" opacity="0.1"/>
    <path id="Path_376" data-name="Path 376" d="M540.193,653.494c-4.2-2-7.271-5.717-10.674-8.912-6.477-6.1-14.4-10.363-21.227-16.115-4.525-3.783-8.636-8.187-13.524-11.365a33.8,33.8,0,0,0-14.491-5.061,3.852,3.852,0,0,0-1.727,0,3.972,3.972,0,0,0-1.641,1.3,52.2,52.2,0,0,0-5.855,8.031c-8.636,14.681-20.916,27.013-31.089,40.658a2.589,2.589,0,0,0-.5.967,2.4,2.4,0,0,0,.38,1.5l2.073,4.041c1.157,2.28,3.023,4.922,5.51,4.473a6.028,6.028,0,0,0,2.884-1.848l9.292-8.9,9.741-9.31c5.7-5.441,11.5-11.02,15.234-18,2.9,5.043,8.066,8.342,11.589,12.954,1.347,1.727,2.453,3.679,3.662,5.544,1.917,2.971,4.111,5.769,6.287,8.636l11.175,14.249a21.383,21.383,0,0,0,5.182,5.182,19.776,19.776,0,0,0,8.964,2.4,118.445,118.445,0,0,0,12.626.449,21.766,21.766,0,0,0,9.413-1.728,8.532,8.532,0,0,0,5.1-7.582,11.123,11.123,0,0,0-1.606-4.715C552.922,663.149,547.706,657.069,540.193,653.494Z" transform="translate(229.754 164.367)" fill="#2f2e41"/>
    <ellipse id="Ellipse_58" data-name="Ellipse 58" cx="3.783" cy="3.8" rx="3.783" ry="3.8" transform="translate(776.821 741.83)" fill="#e8e8f0"/>
    <path id="Path_377" data-name="Path 377" d="M505.652,597.526a7.272,7.272,0,0,1,.415,5.458,22.144,22.144,0,0,1-2.435,5.026,23.926,23.926,0,0,1-3.161,4.49c5.838.276,11.486-2,16.616-4.767,4.145-2.228,8.273-4.974,10.484-9.137a4.835,4.835,0,0,1-3.869-.725,13.82,13.82,0,0,1-2.954-2.746l-2.919-3.282a13.134,13.134,0,0,1-1.727-2.366,6.53,6.53,0,0,1-.777-3.817,22.229,22.229,0,0,1-3.869,3.213c-2.09,1.364-4.387,2.349-6.494,3.7-.725.484-2.384,1.244-1.952,2.211S505.064,596.49,505.652,597.526Z" transform="translate(274.123 145.254)" fill="#fbbebe"/>
    <path id="Path_378" data-name="Path 378" d="M505.652,597.526a7.272,7.272,0,0,1,.415,5.458,22.144,22.144,0,0,1-2.435,5.026,23.926,23.926,0,0,1-3.161,4.49c5.838.276,11.486-2,16.616-4.767,4.145-2.228,8.273-4.974,10.484-9.137a4.835,4.835,0,0,1-3.869-.725,13.82,13.82,0,0,1-2.954-2.746l-2.919-3.282a13.134,13.134,0,0,1-1.727-2.366,6.53,6.53,0,0,1-.777-3.817,22.229,22.229,0,0,1-3.869,3.213c-2.09,1.364-4.387,2.349-6.494,3.7-.725.484-2.384,1.244-1.952,2.211S505.064,596.49,505.652,597.526Z" transform="translate(274.123 145.254)" opacity="0.1"/>
    <path id="Path_379" data-name="Path 379" d="M513.189,593.118a4.922,4.922,0,0,0,0,5.7c.173.207.794,1.5,1.054,1.52a.95.95,0,0,0,.656-.345,43.327,43.327,0,0,0,3.7-4.4,8.221,8.221,0,0,1,4.7-3.074,10.156,10.156,0,0,1,6.477,2.021A6.149,6.149,0,0,1,532,596.261a6.03,6.03,0,0,1,.725,2.47,118.969,118.969,0,0,1,.656,15.7,61.865,61.865,0,0,1-.743,11.313c-.38,1.917-.933,3.8-1.192,5.752a36.7,36.7,0,0,0-.242,5.182v7.22a19,19,0,0,0,.276,3.955c.345,1.572,1.088,3.04,1.589,4.577a29.938,29.938,0,0,1,1.054,5.406l.984,7.462c.311,2.349.553,4.922-.881,6.909-.639.846-1.485,1.537-2.142,2.384-2.435,3.178-1.727,7.721-2.677,11.607a14.473,14.473,0,0,1-4.732,7.254,7.825,7.825,0,0,1-6.235,2.228c-3.04-.57-4.853-3.731-5.682-6.719s-1.123-6.235-2.919-8.757a23.227,23.227,0,0,0-5.769-4.819,9.966,9.966,0,0,1-4.508-5.855c-.19-1.088,0-2.211-.19-3.316a7.824,7.824,0,0,0-4.819-6.339c-1.555-.6-3.454-.829-4.353-2.245a10.484,10.484,0,0,0,4.543-6.1,31.315,31.315,0,0,0,1.105-7.7l.518-8.636c.242-3.886.345-7.72,2.055-11.209.76-1.555,1.727-3.023,2.5-4.56a49.515,49.515,0,0,0,2.677-6.684c1.244-3.558,2.487-7.116,3.592-10.709a20.178,20.178,0,0,1,1.969-4.992C510.1,595.415,511.444,593.463,513.189,593.118Z" transform="translate(266.654 150.232)" fill="#e8e8f0"/>
    <path id="Path_380" data-name="Path 380" d="M492.464,650.152h2.3l.484-3.454a7.2,7.2,0,0,1,.484-2.021,12.093,12.093,0,0,1,1.33-1.934c2.245-3.2,2.09-7.427,2.643-11.313a57.568,57.568,0,0,1,5.043-14.785l4.456-9.931a13.715,13.715,0,0,0,.967-2.539,15.232,15.232,0,0,0,.276-2.936c0-1.537.484-7.133.535-8.636,0-.57-1.261-.259-1.52-.76-.553-1.105-1.313,1.883-2.366,2.539a5.8,5.8,0,0,0-2.055,3.005c-.967,2.487-1.554,5.182-2.453,7.651a15.631,15.631,0,0,1-4.162,6.771c-.915.794-1.969,1.434-2.833,2.3-2.764,2.729-3.04,7.064-3.126,10.968C492.395,627.457,491.946,650.152,492.464,650.152Z" transform="translate(268.122 149.573)" fill="#2f2e41"/>
    <path id="Path_381" data-name="Path 381" d="M520.321,590.569a7.841,7.841,0,0,0-4.094,5.613,28.394,28.394,0,0,1-2.073,6.909c-2.8,4.871-9.931,6.287-11.918,11.555a21.246,21.246,0,0,0-.795,5.441c-.345,3.783-1.589,7.427-1.969,11.192a49.869,49.869,0,0,0,.207,8.791l2.5,29.742a39.727,39.727,0,0,1-.743,13.092,12.607,12.607,0,0,0,7.5-1.243c2.332-1.071,4.473-2.539,6.736-3.783,3.869-2.142,8.152-3.644,11.555-6.494a7.065,7.065,0,0,0,1.555-1.727,14.936,14.936,0,0,0,1.036-3.9,21.071,21.071,0,0,1,1.123-3.075,90.559,90.559,0,0,0,3.247-9.189,52.752,52.752,0,0,0,1.485-6.287c.276-1.727.432-3.454.57-5.182a30.4,30.4,0,0,1,1.589-7.859,63.3,63.3,0,0,0,3.644-18.861,9.861,9.861,0,0,0-.19-2.763,14.788,14.788,0,0,0-1.52-3.161c-1.036-1.952-1.727-4.093-2.625-6.08a29.9,29.9,0,0,0-10.208-10.726C524.933,591.208,522.584,589.757,520.321,590.569Z" transform="translate(273.323 148.653)" fill="#2f2e41"/>
    <path id="Path_382" data-name="Path 382" d="M492.676,622.792a18.011,18.011,0,0,1-4.75-3.61c-.622-.725-1.14-1.537-1.727-2.263a11.763,11.763,0,0,0-5.976-3.454,29.188,29.188,0,0,0-6.909-.674,12.536,12.536,0,0,0-4.612.553,4.7,4.7,0,0,0-3.057,3.282,5.44,5.44,0,0,0,2.332,4.836,10.985,10.985,0,0,0,4.646,2.245,37.124,37.124,0,0,0,4.2.5c8.256.864,15.631,5.354,22.868,9.448q9.534,5.423,19.448,10.087a40.415,40.415,0,0,0,.328-5.959c0-1.485-.121-3.765-1.52-4.646a30.511,30.511,0,0,0-6.183-1.848,97.3,97.3,0,0,1-12.453-5.044A61.929,61.929,0,0,1,492.676,622.792Z" transform="translate(248.79 164.963)" fill="#fbbebe"/>
    <ellipse id="Ellipse_59" data-name="Ellipse 59" cx="14.716" cy="14.802" rx="14.716" ry="14.802" transform="translate(762.865 711.483)" fill="#fbbebe"/>
    <path id="Path_383" data-name="Path 383" d="M529.206,600.97a23.6,23.6,0,0,0-2.85,5.337c-1.727,3.731-4.663,6.909-6.1,10.864s-1.451,9.033-4.4,12.263a4.3,4.3,0,0,0-1.3,1.865,8.906,8.906,0,0,1-.138,1.347c-.432,1.174-2.349,1.226-2.712,2.435-.1.346,0,.725-.173,1.071-.294.777-1.33.9-2,1.364-1.434.967-1.14,3.213-2.159,4.612a3.887,3.887,0,0,1-3.679,1.3,12.959,12.959,0,0,1-3.817-1.434,3.681,3.681,0,0,0-1.382-.432,2.849,2.849,0,0,0-1.589.553,9.793,9.793,0,0,0-3.973,8.377,27.357,27.357,0,0,0,2.28,9.379,3.765,3.765,0,0,0,.743,1.4,3.3,3.3,0,0,0,3.662.276,17.274,17.274,0,0,1,3.575-1.606c2.28-.414,4.508,1.157,6.822,1.019a9.482,9.482,0,0,0,4.594-2.021,25.391,25.391,0,0,0,6.183-5.182c1-1.33,1.727-2.833,2.625-4.249a54.5,54.5,0,0,1,3.714-4.957l8.5-10.363a23.891,23.891,0,0,0,2.28-3.143,22.159,22.159,0,0,0,1.727-4.75,36.383,36.383,0,0,0,1.727-8.446,32.455,32.455,0,0,0-.622-7.081,25.031,25.031,0,0,0-1.727-6.753C537.169,600.106,532.678,596.928,529.206,600.97Z" transform="translate(268.635 155.023)" fill="#2f2e41"/>
    <path id="Path_384" data-name="Path 384" d="M562.244,609.219a16.581,16.581,0,0,0-6.805-13.472A19.707,19.707,0,0,0,538.7,576.558a19.12,19.12,0,0,0-37.67,1.019c-6.114-1.382-11.71.415-12.729,4.18s3.3,8.636,9.741,10.363a18.149,18.149,0,0,0,6.252.622,19.138,19.138,0,0,0,13.161,8.2,19.638,19.638,0,0,0,14.37,14.819,16.5,16.5,0,0,0,4.439,6.132v1.433a12.453,12.453,0,1,0,24.906,0,13.3,13.3,0,0,0-1.192-5.51A16.649,16.649,0,0,0,562.244,609.219Z" transform="translate(265.167 127.463)" fill="#f86d70"/>
    <path id="Path_385" data-name="Path 385" d="M492.455,582.555c1.019-3.765,6.615-5.562,12.729-4.18a19.448,19.448,0,0,1,19-16.374h1.261a18.718,18.718,0,0,0-5.423-.812,19.448,19.448,0,0,0-19,16.374c-6.114-1.382-11.71.414-12.729,4.18s3.3,8.636,9.741,10.363a18.991,18.991,0,0,0,3.7.639C495.564,590.9,491.436,586.407,492.455,582.555Z" transform="translate(265.159 127.46)" opacity="0.1"/>
    <path id="Path_386" data-name="Path 386" d="M533.387,610.5a12.929,12.929,0,0,1,0-1.416,16.128,16.128,0,0,1-4.439-6.132,19.586,19.586,0,0,1-14.37-14.837,19.085,19.085,0,0,1-13.178-8.187,16.575,16.575,0,0,1-3.679-.1,19.189,19.189,0,0,0,12.695,7.548,19.638,19.638,0,0,0,14.37,14.819,16.5,16.5,0,0,0,4.439,6.132v1.434a12.678,12.678,0,0,0,12.384,12.885A12.884,12.884,0,0,1,533.387,610.5Z" transform="translate(272.123 141.014)" opacity="0.1"/>
    <ellipse id="Ellipse_60" data-name="Ellipse 60" cx="2.263" cy="3.023" rx="2.263" ry="3.023" transform="translate(778.875 728.272) rotate(-37.22)" fill="#fbbebe"/>
  </g>
</svg>
