<svg xmlns="http://www.w3.org/2000/svg" xmlns:xlink="http://www.w3.org/1999/xlink" width="253.609" height="164.165" viewBox="0 0 253.609 164.165">
  <defs>
    <linearGradient id="linear-gradient" x1="0.5" y1="1" x2="0.5" gradientUnits="objectBoundingBox">
      <stop offset="0" stop-color="gray" stop-opacity="0.251"/>
      <stop offset="0.54" stop-color="gray" stop-opacity="0.122"/>
      <stop offset="1" stop-color="gray" stop-opacity="0.102"/>
    </linearGradient>
    <linearGradient id="linear-gradient-2" x1="0.5" y1="1" x2="0.5" y2="-0.001" xlink:href="#linear-gradient"/>
  </defs>
  <g id="Group_17" data-name="Group 17" transform="translate(-119.603 -77.529)">
    <circle id="Ellipse_52" data-name="Ellipse 52" cx="38.013" cy="38.013" r="38.013" transform="translate(297.185 77.529)" fill="#3f3d56"/>
    <path id="Path_311" data-name="Path 311" d="M819.814,382.379a28.8,28.8,0,0,0-6.085-4.065c-1.822-.875-2.491-.859-3.78.072-1.072.761-1.768,1.495-3,1.225s-3.674-2.111-6.035-4.465-4.195-4.78-4.457-6.031.46-1.932,1.228-3c.928-1.289.955-1.958.072-3.78a29.162,29.162,0,0,0-4.069-6.085c-1.335-1.331-1.624-1.038-2.354-.761a13.612,13.612,0,0,0-2.156,1.141,6.505,6.505,0,0,0-2.586,2.734c-.521,1.11-1.11,3.172,1.92,8.568a47.8,47.8,0,0,0,8.4,11.207h0a47.87,47.87,0,0,0,11.245,8.42c5.392,3.042,7.457,2.438,8.568,1.92a6.384,6.384,0,0,0,2.73-2.586,13.433,13.433,0,0,0,1.141-2.156C820.852,384,821.149,383.706,819.814,382.379Z" transform="translate(-468.297 -257.033)" fill="#01e0ad"/>
    <path id="Path_312" data-name="Path 312" d="M769.728,300.86a38.029,38.029,0,1,0,38.01,38.016A38.029,38.029,0,0,0,769.728,300.86Zm0,70.969a32.959,32.959,0,1,1,32.959-32.959A32.959,32.959,0,0,1,769.728,371.829Z" transform="translate(-434.529 -223.328)" opacity="0.1"/>
    <circle id="Ellipse_53" data-name="Ellipse 53" cx="38.013" cy="38.013" r="38.013" transform="translate(209.853 135.267)" fill="#3f3d56"/>
    <path id="Path_313" data-name="Path 313" d="M587.855,522.308l-11.382,11.58a.205.205,0,0,0,0,.3l7.986,8.492a1.374,1.374,0,1,1-1.943,1.943l-7.944-8.461a.217.217,0,0,0-.3,0l-1.936,1.955a8.507,8.507,0,0,1-6.085,2.559,8.693,8.693,0,0,1-6.191-2.632l-1.86-1.9a.217.217,0,0,0-.3,0l-7.925,8.442a1.374,1.374,0,1,1-1.943-1.943l7.956-8.473a.228.228,0,0,0,0-.3L544.6,522.289a.209.209,0,0,0-.357.148v23.171a3.392,3.392,0,0,0,3.381,3.381h37.219a3.392,3.392,0,0,0,3.381-3.381V522.457a.209.209,0,0,0-.365-.148Z" transform="translate(-318.37 -360.512)" fill="#01e0ad"/>
    <path id="Path_314" data-name="Path 314" d="M568.349,531.975a5.758,5.758,0,0,0,4.153-1.711l16.577-16.873a3.308,3.308,0,0,0-2.092-.761H549.742a3.285,3.285,0,0,0-2.092.761l16.58,16.873A5.735,5.735,0,0,0,568.349,531.975Z" transform="translate(-320.483 -354.564)" fill="#01e0ad"/>
    <path id="Path_315" data-name="Path 315" d="M538.818,452.69a38.029,38.029,0,1,0,38.01,38.016A38.029,38.029,0,0,0,538.818,452.69Zm0,70.969A32.959,32.959,0,1,1,571.777,490.7,32.959,32.959,0,0,1,538.818,523.659Z" transform="translate(-291.431 -317.419)" opacity="0.1"/>
    <circle id="Ellipse_54" data-name="Ellipse 54" cx="38.013" cy="38.013" r="38.013" transform="translate(119.637 106.879)" fill="#3f3d56"/>
    <path id="Path_316" data-name="Path 316" d="M340.154,430.16,325,465.124l1.415,1.415,13.744-6.062,13.744,6.062,1.415-1.415Z" transform="translate(-182.504 -303.457)" fill="#01e0ad"/>
    <path id="Path_317" data-name="Path 317" d="M302.848,378a38.006,38.006,0,1,0,.006,0Zm0,70.969a27.117,27.117,0,1,1,0,.015Z" transform="translate(-145.197 -271.132)" opacity="0.1"/>
    <path id="Path_318" data-name="Path 318" d="M811.349,576.972q-.517-1.263-1.061-2.518a7.472,7.472,0,0,0-1.3-2.24,2.372,2.372,0,0,0-.761-.57,3.243,3.243,0,0,0-.992-.2,7.925,7.925,0,0,0-1.559-.042c-.2-.061-.43-.141-.654-.232a5.43,5.43,0,0,0,4.046-5.039V565.9a5.419,5.419,0,0,0-5.4-5.442,5.324,5.324,0,0,0-2.833.81,5.084,5.084,0,0,0-5.7,2.749A6.287,6.287,0,0,0,793.2,568.7v.24c.1,2.955,2.008,5.324,4.419,5.564a2.532,2.532,0,0,0-.7.468,4.328,4.328,0,0,0-.939,2.867l-.057.761-1.278.456a.236.236,0,0,0-.057.414l1.221.871v.217a.951.951,0,0,0,.023.247,1.745,1.745,0,0,0-.472.673,3.111,3.111,0,0,0-.11,1.232l.046,1.061a8.334,8.334,0,0,0,.323,2.362c.16.472.852,1.609,1.35,1.616a49.19,49.19,0,0,0-.582,6.5c-.057.057.1.11.38.156.274,2.1,1.168,7.986,2.753,10.576a22.314,22.314,0,0,1,.6,2.571,49.236,49.236,0,0,0,1.05,7.256,36.946,36.946,0,0,1,1.023,5.917.582.582,0,0,0-.422.434c-.3.905-2.247,2.282-2.247,2.282a9.415,9.415,0,0,0-1.681,1.076c-.612.551-.589,1.05,2.13.738,5.248-.6,6.145-2.282,6.145-2.282s-.084-.281-.209-.646a7.016,7.016,0,0,0-.688-1.624c-.076-.072-.152.049-.243.24a32.562,32.562,0,0,1-.357-7.343,11.914,11.914,0,0,0-.6-4.385,8.3,8.3,0,0,1,0-2.871c.3-1.209-1.2-7.108-1.2-7.108l-.859-4.343a1.248,1.248,0,0,1,.24.506l.023.087.023.125a.235.235,0,0,0,.061.118c.586,2.434,2.19,9.176,2.19,10.165,0,1.209,1.5,4.233,1.5,4.233s.6,4.989,1.647,6.952a10.079,10.079,0,0,1,.78,4.651h0a4.306,4.306,0,0,1-.479,1.544,3.676,3.676,0,0,0-.567.985l-.034.072s-.449.909-.148,1.061a7.366,7.366,0,0,0,3.6.453s.6-.761.6-1.057a4.738,4.738,0,0,0-.068-.54c-.11-.715-.316-1.841-.319-1.852a5.19,5.19,0,0,0-.38-1.841l-.152-4.233a19.54,19.54,0,0,0-1.05-8.469,14.055,14.055,0,0,1-.6-3.476c.164-.757-.3-8.769-.3-8.769l-.046-.114a8.657,8.657,0,0,1,.046-1.7,22.585,22.585,0,0,0-.6-5.742,4.982,4.982,0,0,1-.213-1.251c.034-.316.137-1.24.278-2.388a42.929,42.929,0,0,0,4.419-.38.551.551,0,0,0,.38-.152.532.532,0,0,0,.088-.308A14.75,14.75,0,0,0,811.349,576.972Zm-3.016,4.8c.156-1.084.323-2.133.491-2.913l.023.068a21.185,21.185,0,0,1,.723,2.4A8.136,8.136,0,0,1,808.333,581.767Z" transform="translate(-472.652 -384.205)" fill="url(#linear-gradient)"/>
    <path id="Path_319" data-name="Path 319" d="M802.37,648.2s.9,8.073,2.841,11.211a21.763,21.763,0,0,1,.6,2.54,48.029,48.029,0,0,0,1.046,7.172,39.562,39.562,0,0,1,1.046,6.13s2.092,2.388,2.841.449a31.5,31.5,0,0,1-.449-7.773,11.706,11.706,0,0,0-.6-4.335,8.107,8.107,0,0,1,0-2.837c.3-1.2-1.2-7.024-1.2-7.024L807.3,647.9Z" transform="translate(-478.337 -438.393)" fill="#be6f72"/>
    <path id="Path_320" data-name="Path 320" d="M813.157,721.237s-.9,1.643-6.126,2.24c-2.715.308-2.734-.182-2.122-.73a9.466,9.466,0,0,1,1.673-1.065s1.943-1.342,2.24-2.24,1.346-.148,1.346-.148c1.495,2.24,1.795-.6,2.091-.3a6.742,6.742,0,0,1,.688,1.6C813.073,720.956,813.157,721.237,813.157,721.237Z" transform="translate(-479.708 -482.437)" fill="#ff6f61"/>
    <path id="Path_321" data-name="Path 321" d="M813.157,723.883s-.9,1.643-6.126,2.24c-2.715.308-2.734-.182-2.122-.73.426.27,1.285.38,3.016-.316,2.491-1.019,4.3-1.609,5.024-1.837C813.073,723.6,813.157,723.883,813.157,723.883Z" transform="translate(-479.708 -485.082)" opacity="0.1"/>
    <path id="Path_322" data-name="Path 322" d="M816.643,667.926a11.7,11.7,0,0,0-.6-4.335,8.107,8.107,0,0,1,0-2.837c.3-1.2-1.2-7.024-1.2-7.024l-1.194-5.83-1.034.061,1.183,5.769s1.495,5.826,1.2,7.024a8.11,8.11,0,0,0,0,2.837,11.364,11.364,0,0,1,.6,4.335,31.5,31.5,0,0,0,.449,7.773,1.309,1.309,0,0,1-.434.616.977.977,0,0,0,1.479-.616A31.5,31.5,0,0,1,816.643,667.926Z" transform="translate(-484.689 -438.393)" opacity="0.1"/>
    <path id="Path_323" data-name="Path 323" d="M803.59,562.42a5.325,5.325,0,0,0-2.822.8,5.077,5.077,0,0,0-5.7,2.719,6.191,6.191,0,0,0-1.936,4.624c0,3.179,2.141,5.754,4.78,5.754a4.828,4.828,0,0,0,4.331-3.312,5.247,5.247,0,0,0,1.346.175,5.381,5.381,0,0,0,0-10.762Z" transform="translate(-472.608 -385.42)" fill="#3f3d56"/>
    <path id="Path_324" data-name="Path 324" d="M822.461,650.65l.449,1.194s.449,7.921.3,8.671a14.124,14.124,0,0,0,.6,3.423,19.133,19.133,0,0,1,1.046,8.366l.148,4.183s.6,1.643.3,1.943-2.552-.266-2.552-.266a10.657,10.657,0,0,0-.761-5.081c-1.061-1.943-1.643-6.876-1.643-6.876s-1.494-2.989-1.494-4.183-2.392-10.91-2.392-10.91Z" transform="translate(-487.068 -440.097)" fill="#be6f72"/>
    <path id="Path_325" data-name="Path 325" d="M801.561,634.928s.152-5.381.761-7.024a11.153,11.153,0,0,0,.666-2.384s9.047,1.635,9.8,1.038a12.977,12.977,0,0,0,.3,2.24,21.49,21.49,0,0,1,.6,5.681c-.164,1.795,0,1.791,0,1.791s-6.13.9-6.279,0-.6-.894-.6-.894S801.265,635.21,801.561,634.928Z" transform="translate(-477.828 -424.524)" fill="#3f3d56"/>
    <g id="Group_14" data-name="Group 14" transform="translate(323.733 202.034)" opacity="0.1">
      <path id="Path_326" data-name="Path 326" d="M806.512,649.758s-3.78-.1-4.921-.308v.308c-.3.3,5.233.449,5.233.449a.38.38,0,0,1,.205.084C806.828,649.758,806.512,649.758,806.512,649.758Z" transform="translate(-801.58 -641.388)"/>
      <path id="Path_327" data-name="Path 327" d="M822.517,630.49a12.965,12.965,0,0,1-.3-2.24.643.643,0,0,1-.255.091,7.557,7.557,0,0,0,.255,1.7,23.733,23.733,0,0,1,.6,5.681c-.164,1.795,0,1.791,0,1.791s-4.849.711-6.024.236a1.808,1.808,0,0,0,.046.213c.148.9,6.279,0,6.279,0s-.152,0,0-1.791A22.219,22.219,0,0,0,822.517,630.49Z" transform="translate(-811.006 -628.25)"/>
      <path id="Path_328" data-name="Path 328" d="M806.512,649.758s-3.78-.1-4.921-.308v.308c-.3.3,5.233.449,5.233.449a.38.38,0,0,1,.205.084C806.828,649.758,806.512,649.758,806.512,649.758Z" transform="translate(-801.58 -641.388)"/>
      <path id="Path_329" data-name="Path 329" d="M822.517,630.49a12.965,12.965,0,0,1-.3-2.24.643.643,0,0,1-.255.091,7.557,7.557,0,0,0,.255,1.7,23.733,23.733,0,0,1,.6,5.681c-.164,1.795,0,1.791,0,1.791s-4.849.711-6.024.236a1.808,1.808,0,0,0,.046.213c.148.9,6.279,0,6.279,0s-.152,0,0-1.791A22.219,22.219,0,0,0,822.517,630.49Z" transform="translate(-811.006 -628.25)"/>
    </g>
    <path id="Path_330" data-name="Path 330" d="M813.657,584.676a1.982,1.982,0,0,0,.57.738,1.277,1.277,0,0,0,.536.232c-.335.194-.7.339-1.034.532a18.4,18.4,0,0,0-1.521,1.141,3.094,3.094,0,0,1-1.745.677,2.137,2.137,0,0,0,.243-2.126,1.985,1.985,0,0,1-.266-.738,1.325,1.325,0,0,1,.734-.989c.285-.194.578-.38.875-.567.232-.144.582-.449.875-.437s.327.27.38.536A4.217,4.217,0,0,0,813.657,584.676Z" transform="translate(-483.338 -398.26)" fill="#be6f72"/>
    <path id="Path_331" data-name="Path 331" d="M813.657,584.676a1.982,1.982,0,0,0,.57.738,1.277,1.277,0,0,0,.536.232c-.335.194-.7.339-1.034.532a18.4,18.4,0,0,0-1.521,1.141,3.094,3.094,0,0,1-1.745.677,2.137,2.137,0,0,0,.243-2.126,1.985,1.985,0,0,1-.266-.738,1.325,1.325,0,0,1,.734-.989c.285-.194.578-.38.875-.567.232-.144.582-.449.875-.437s.327.27.38.536A4.217,4.217,0,0,0,813.657,584.676Z" transform="translate(-483.338 -398.26)" opacity="0.1"/>
    <circle id="Ellipse_55" data-name="Ellipse 55" cx="3.438" cy="3.438" r="3.438" transform="translate(330.384 188.359)" fill="#be6f72"/>
    <path id="Path_332" data-name="Path 332" d="M833.894,723.847c0,.3-.6,1.046-.6,1.046a7.4,7.4,0,0,1-3.586-.449c-.3-.148.148-1.046.148-1.046l.034-.072a3.631,3.631,0,0,1,.567-.974,4.255,4.255,0,0,0,.475-1.521c.928-1.521,2.575.658,2.575.658s.209,1.141.319,1.833A5.215,5.215,0,0,1,833.894,723.847Z" transform="translate(-495.216 -483.255)" fill="#ff6f61"/>
    <path id="Path_333" data-name="Path 333" d="M833.894,728.772c0,.3-.6,1.046-.6,1.046a7.4,7.4,0,0,1-3.586-.449c-.3-.148.148-1.046.148-1.046l.034-.072a7.226,7.226,0,0,0,3.255.669l.681-.681C833.868,728.495,833.894,728.7,833.894,728.772Z" transform="translate(-495.216 -488.181)" opacity="0.1"/>
    <circle id="Ellipse_56" data-name="Ellipse 56" cx="3.362" cy="3.362" r="3.362" transform="translate(323.585 181.259)" fill="#be6f72"/>
    <path id="Path_334" data-name="Path 334" d="M801.125,598.675a4.221,4.221,0,0,0-.935,2.833l-.114,1.487a7.516,7.516,0,0,0-.027,1.206c0,.247.061.5.084.761s.031.593.034.894v2.2a2.593,2.593,0,0,0,.243,1.32.9.9,0,0,0,1.141.411,1.3,1.3,0,0,0,.472-.73,11.347,11.347,0,0,0,.761-2.784c.03-.331.034-.662.065-.993s.087-.677.137-1.012c.213-1.4.308-2.814.4-4.225.027-.418.4-2.065-.144-2.247-.266-.087-.818.186-1.073.278a3.017,3.017,0,0,0-1.046.6Z" transform="translate(-476.891 -407.33)" fill="#be6f72"/>
    <path id="Path_335" data-name="Path 335" d="M801.125,598.675a4.221,4.221,0,0,0-.935,2.833l-.114,1.487a7.516,7.516,0,0,0-.027,1.206c0,.247.061.5.084.761s.031.593.034.894v2.2a2.593,2.593,0,0,0,.243,1.32.9.9,0,0,0,1.141.411,1.3,1.3,0,0,0,.472-.73,11.347,11.347,0,0,0,.761-2.784c.03-.331.034-.662.065-.993s.087-.677.137-1.012c.213-1.4.308-2.814.4-4.225.027-.418.4-2.065-.144-2.247-.266-.087-.818.186-1.073.278a3.017,3.017,0,0,0-1.046.6Z" transform="translate(-476.891 -407.33)" opacity="0.1"/>
    <path id="Path_336" data-name="Path 336" d="M810.844,588.16a18.433,18.433,0,0,1-4.035,2.392s-.886,1.012-1.038,1.255-.456,2.928-.761,3.529a2.856,2.856,0,0,0,0,3.286,5.7,5.7,0,0,1,.148,1.795c-.148.449-.692,2.092-.2,2.168s1.993,1.118,3.335.821,6.355,1.141,6.355,1.141.829-7.7,1.43-9.062l-1.346-.449s-3.734-2.24-1.495-5.678C813.236,589.358,811.136,588.909,810.844,588.16Z" transform="translate(-479.638 -401.371)" fill="#ff6f61"/>
    <path id="Path_337" data-name="Path 337" d="M796.684,610.252l3.088,2.187a.228.228,0,0,0,.27,0l.837-.628a.236.236,0,0,0,0-.357l-2.377-2.111a.228.228,0,0,0-.232-.046l-1.525.548a.232.232,0,0,0-.061.407Z" transform="translate(-474.754 -414.462)" fill="#3f3d56"/>
    <path id="Path_338" data-name="Path 338" d="M798.938,619.56a8.278,8.278,0,0,1-.323-2.331l-.046-1.053a3.039,3.039,0,0,1,.11-1.217,1.988,1.988,0,0,1,1.282-1.122,4.424,4.424,0,0,1,1.745-.126.448.448,0,0,1,.224.061.419.419,0,0,1,.122.205,1.377,1.377,0,0,1,.068,1.1,1.141,1.141,0,0,1-.35.361c-.415.3-.9.494-1.289.818a.467.467,0,0,0-.175.22.513.513,0,0,0,0,.24,3.826,3.826,0,0,0,.2.612.605.605,0,0,0,.171.259c.072.061.167.084.243.141.163.133.506.308.487.517a17.058,17.058,0,0,1-.692,2.365C800.372,622.082,799.159,620.2,798.938,619.56Z" transform="translate(-475.969 -417.184)" fill="#be6f72"/>
    <g id="Group_15" data-name="Group 15" transform="translate(327.688 193.889)" opacity="0.1">
      <path id="Path_339" data-name="Path 339" d="M812.064,628.191h-.084a2.559,2.559,0,0,0,.977,0h.1A3.423,3.423,0,0,0,812.064,628.191Z" transform="translate(-811.98 -620.046)"/>
      <path id="Path_340" data-name="Path 340" d="M830.438,606.83c-.536,1.206-1.327,7.735-1.468,9.032.525.137.871.236.871.236s.821-7.682,1.422-9.043Z" transform="translate(-822.509 -606.83)"/>
    </g>
    <path id="Path_341" data-name="Path 341" d="M818.187,594.929a1.141,1.141,0,0,0,.491.742,6.578,6.578,0,0,1,.871.882,6.244,6.244,0,0,1,.863,1.73,21.223,21.223,0,0,1,.719,2.365c-1.9.882-4.062.84-6.085,1.422a4.857,4.857,0,0,0-2.282,1.35,3.145,3.145,0,0,0-.84,2.476.324.324,0,0,0,.046.148.32.32,0,0,0,.266.106,2.282,2.282,0,0,0,1.4-.479,6.647,6.647,0,0,0,1.069-1.05,1.719,1.719,0,0,1,.76-.563,12.446,12.446,0,0,1,3.423-.335,43.121,43.121,0,0,0,5.1-.4.411.411,0,0,0,.456-.456,14.627,14.627,0,0,0-1.521-6.514q-.513-1.251-1.057-2.491a7.378,7.378,0,0,0-1.293-2.213,2.283,2.283,0,0,0-.76-.563,3.218,3.218,0,0,0-1.019-.19,7.229,7.229,0,0,0-1.669-.03,3.556,3.556,0,0,0-.16.863,7.48,7.48,0,0,0,.92,2.917C817.936,594.785,818.1,594.792,818.187,594.929Z" transform="translate(-484.247 -403.026)" fill="#be6f72"/>
    <path id="Path_342" data-name="Path 342" d="M811.79,606.67a2.787,2.787,0,0,0-.38,1.453,1.959,1.959,0,0,0,.1.593,1.924,1.924,0,0,0,1.213,1.141" transform="translate(-483.938 -412.842)" fill="none" stroke="#000" stroke-miterlimit="10" stroke-width="1" opacity="0.1"/>
    <path id="Path_343" data-name="Path 343" d="M806.283,571.868a1.747,1.747,0,0,0-.551.087,3.646,3.646,0,0,0-3.042-1.285c-1.818,0-3.29.939-3.29,2.1s1.472,2.092,3.29,2.092a4.626,4.626,0,0,0,1.974-.418,1.791,1.791,0,1,0,1.612-2.571Z" transform="translate(-476.496 -390.533)" fill="#3f3d56"/>
    <path id="Path_344" data-name="Path 344" d="M806.419,577.348a1.788,1.788,0,0,1-1.613-1.016,4.628,4.628,0,0,1-1.973.419c-1.814,0-3.286-.935-3.286-2.092a1.247,1.247,0,0,1,0-.209,1.418,1.418,0,0,0-.167.658c0,1.141,1.472,2.092,3.289,2.092a4.63,4.63,0,0,0,1.974-.418,1.791,1.791,0,0,0,3.373-.445A1.784,1.784,0,0,1,806.419,577.348Z" transform="translate(-476.484 -392.875)" opacity="0.1"/>
    <path id="Path_345" data-name="Path 345" d="M795.043,566.824a5.077,5.077,0,0,1,5.7-2.719,5.377,5.377,0,0,1,8.184,4.13v-.449a5.377,5.377,0,0,0-8.2-4.563,5.077,5.077,0,0,0-5.7,2.719,6.19,6.19,0,0,0-1.936,4.624v.449A6.084,6.084,0,0,1,795.043,566.824Z" transform="translate(-472.584 -385.42)" opacity="0.1"/>
    <path id="Path_364" data-name="Path 364" d="M446.912,570.508a3.73,3.73,0,0,0-1.487-3.012,206.141,206.141,0,0,0-6.564-7.541h0a3.7,3.7,0,0,0-.54-.126h-.643a4.282,4.282,0,0,0-4.138,3.658c-1.335-.308-2.556.091-2.78.936a1.141,1.141,0,0,0,.038.677,2.943,2.943,0,0,0,1.962,1.59l.129.038.194.049h.042a3.362,3.362,0,0,0-.319,1.441,3.324,3.324,0,0,0,1.791,2.966l-.087.053a1.187,1.187,0,0,0-.289.4,6.03,6.03,0,0,0-.559,1.346c-.1.4-.11.821-.228,1.221-.221.734-.783,1.354-.848,2.118-.03.342.027.761-.217.981a1.185,1.185,0,0,1-.194.137,1.569,1.569,0,0,0-.422.445,1.476,1.476,0,0,1-.3.426c-.221.164-.582.148-.688.4s.171.555.106.833-.3.331-.472.487a1.692,1.692,0,0,0-.407.761,2.5,2.5,0,0,1-2.054-.525,3.837,3.837,0,0,1,.213.761,3.332,3.332,0,0,0-1.107-.555,3.5,3.5,0,0,1-1.179-.875l.631-.088-2.787-4.255-.825-.171.738,1.418a.452.452,0,0,0-.251.3,1.288,1.288,0,0,0-.027.483,8.637,8.637,0,0,0,.19,1.141l.213,1c.019.091.042.186.068.278a2.618,2.618,0,0,0-.825.091,7.181,7.181,0,0,0-1.715-.407.95.95,0,0,0-.38,0,.985.985,0,0,0-.361.293,11.693,11.693,0,0,0-1.274,1.795,62.656,62.656,0,0,1-5.377,7.244c-1.293.525-2.6,1.023-3.9,1.521l-2.807,1.072a4.255,4.255,0,0,1-1.742.38c-.266,0-.6-.057-.761.171a1.6,1.6,0,0,0-.171.38l-.289.03h0a3.322,3.322,0,0,0-.673-1.24.426.426,0,0,0-.316.243c-.068.125-.11.262-.19.38-.148.221-.411.327-.6.513s-.3.475-.51.666a2.016,2.016,0,0,1-.955.38,6.024,6.024,0,0,0-1.495.567,2.408,2.408,0,0,1-.551.255,2.074,2.074,0,0,1-.65.023l-1.483-.11a1.174,1.174,0,0,0-.4.019.761.761,0,0,0-.472.761,1.2,1.2,0,0,0,.472.818,3.019,3.019,0,0,0,.844.437,24.777,24.777,0,0,0,3.955,1.171v.3a6.751,6.751,0,0,0,3.042.723.472.472,0,0,0,.228-.042.5.5,0,0,0,.19-.3,12.235,12.235,0,0,0,.593-2.913h0a1.522,1.522,0,0,0,.536-.137c.51-.141,1.019.209,1.548.266a4.229,4.229,0,0,0,1.867-.54l.266-.087a2.918,2.918,0,0,1-.616.589c-.255.183-.54.319-.787.51a5.417,5.417,0,0,1-.669.517,4.206,4.206,0,0,1-.513.2,3.388,3.388,0,0,0-.734.38,1.487,1.487,0,0,0-.5.487.731.731,0,0,0-.042.685.723.723,0,0,0,.491.342,2.016,2.016,0,0,0,.6,0c.806-.061,1.609-.133,2.411-.205a6.428,6.428,0,0,0,1.008-.144c.175-.042.35-.1.525-.148a4.678,4.678,0,0,1,.917-.137.761.761,0,0,1,.266.027c.186.061.319.251.51.289a.76.76,0,0,0,.38-.049,8.489,8.489,0,0,1,1.784-.19.736.736,0,0,0,.692-.308c.122-.243-.1-.635-.2-.958a2.932,2.932,0,0,1-.084-.631,3.952,3.952,0,0,0-.441-1.5,3.912,3.912,0,0,1-.331-.684,17.3,17.3,0,0,0,3.282-1.666,5.868,5.868,0,0,1,1.871-.9,5.089,5.089,0,0,1,2.35.274,53.477,53.477,0,0,1,5.389,1.879c.84.346,1.677.711,2.544.974a3.969,3.969,0,0,0,.905.878,4.184,4.184,0,0,0,1.958.536,25.678,25.678,0,0,0,2.757.1,4.651,4.651,0,0,0,2.054-.38,2.11,2.11,0,0,0,.43-.285,1.7,1.7,0,0,0,1.354-.5,3.282,3.282,0,0,0,1.031-1.628c.224-.867.053-1.9.586-2.594.141-.19.327-.342.468-.532a1.5,1.5,0,0,0,.243-.879.177.177,0,0,1,.023-.034,3.222,3.222,0,0,0,.228-.875,5,5,0,0,1,.247-.692,21.353,21.353,0,0,0,.707-2.05,11.961,11.961,0,0,0,.327-1.407c.057-.38.091-.76.122-1.141a7.088,7.088,0,0,1,.346-1.761,14.327,14.327,0,0,0,.8-4.214v-.084a2.826,2.826,0,0,0,2.5-2.875,3,3,0,0,0-.262-1.228A3.8,3.8,0,0,0,446.912,570.508ZM433.3,587.039c.042.148.091.293.141.437-.224-.217-.441-.441-.665-.662.087.03.179.057.262.091a1.411,1.411,0,0,1,.251.133Zm-1.076-.73c-1.316-1.141-2.837-2.027-4.183-3.134.734.361,1.449.783,2.156,1.186q1.259.719,2.552,1.38a2.088,2.088,0,0,1-.536.567Zm.559-2.875.065-.065v.453l-.354-.122a3.141,3.141,0,0,0,.278-.266Zm-11.572,3.08a10.891,10.891,0,0,0,1.4-2,13.441,13.441,0,0,0,2.088,2.331C423.543,586.7,422.379,586.576,421.216,586.515Z" transform="translate(-226.457 -383.815)" fill="url(#linear-gradient-2)"/>
    <path id="Path_365" data-name="Path 365" d="M415.35,438.25l.829.167L419,442.6l-1.244.167Z" transform="translate(-218.72 -246.624)" fill="#2f2e41"/>
    <path id="Path_366" data-name="Path 366" d="M414.49,645.392a16.269,16.269,0,0,0,.829,2.156,20.517,20.517,0,0,0,2.757-.787A8.711,8.711,0,0,0,417.5,646a2.837,2.837,0,0,0-.78-.6,2.146,2.146,0,0,0-.947,0C415.349,645.392,414.92,645.4,414.49,645.392Z" transform="translate(-237.962 -436.813)" fill="#fbbebe"/>
    <path id="Path_367" data-name="Path 367" d="M405.149,644.554a1.719,1.719,0,0,1-.943-1.072,3.453,3.453,0,0,0-.719-1.282.411.411,0,0,0-.319.24c-.068.122-.11.259-.186.38-.152.217-.418.323-.608.506s-.3.468-.51.654a2.023,2.023,0,0,1-.962.38,6.237,6.237,0,0,0-1.521.559,2.625,2.625,0,0,1-.559.251,2.212,2.212,0,0,1-.654,0l-1.5-.107a1.169,1.169,0,0,0-.38,0,.726.726,0,0,0-.475.761,1.141,1.141,0,0,0,.475.806,3.154,3.154,0,0,0,.852.433,25.067,25.067,0,0,0,4.016,1.141v.3a6.952,6.952,0,0,0,3.061.711.516.516,0,0,0,.228-.038.5.5,0,0,0,.19-.3,11.866,11.866,0,0,0,.627-3.255,2.594,2.594,0,0,0-.065-.84c-.084-.27.2-.156-.061-.262" transform="translate(-226.385 -434.861)" fill="#2f2e41"/>
    <path id="Path_368" data-name="Path 368" d="M447.867,631.608c-4.442.266-8.83-1.034-13.28-1.171a6.485,6.485,0,0,0-1.65.1,8.318,8.318,0,0,0-1.635.635c-2.384,1.11-4.852,2.031-7.317,2.947l-2.833,1.053a4.29,4.29,0,0,1-1.753.38c-.27,0-.6-.057-.761.167a2.774,2.774,0,0,0,.061,2.453c.1.247.266.517.532.544a1.548,1.548,0,0,0,.54-.137c.513-.137,1.027.209,1.559.266a4.381,4.381,0,0,0,1.882-.532,16.331,16.331,0,0,1,3.225-.547,14.45,14.45,0,0,0,5.05-2.1,5.894,5.894,0,0,1,1.882-.89,5.21,5.21,0,0,1,2.369.27,54.372,54.372,0,0,1,5.434,1.848,25.311,25.311,0,0,0,2.837,1.038,10.268,10.268,0,0,0,6.362-.38c.711-.281,1.483-.761,1.521-1.544.027-.437-.316-.822-.54-1.2-.145-.24-.293-.479-.449-.711C450.144,633,449.217,631.529,447.867,631.608Z" transform="translate(-240.368 -427.562)" fill="#2f2e41"/>
    <path id="Path_369" data-name="Path 369" d="M447.867,631.608c-4.442.266-8.83-1.034-13.28-1.171a6.485,6.485,0,0,0-1.65.1,8.318,8.318,0,0,0-1.635.635c-2.384,1.11-4.852,2.031-7.317,2.947l-2.833,1.053a4.29,4.29,0,0,1-1.753.38c-.27,0-.6-.057-.761.167a2.774,2.774,0,0,0,.061,2.453c.1.247.266.517.532.544a1.548,1.548,0,0,0,.54-.137c.513-.137,1.027.209,1.559.266a4.381,4.381,0,0,0,1.882-.532,16.331,16.331,0,0,1,3.225-.547,14.45,14.45,0,0,0,5.05-2.1,5.894,5.894,0,0,1,1.882-.89,5.21,5.21,0,0,1,2.369.27,54.372,54.372,0,0,1,5.434,1.848,25.311,25.311,0,0,0,2.837,1.038,10.268,10.268,0,0,0,6.362-.38c.711-.281,1.483-.761,1.521-1.544.027-.437-.316-.822-.54-1.2-.145-.24-.293-.479-.449-.711C450.144,633,449.217,631.529,447.867,631.608Z" transform="translate(-240.368 -427.562)" opacity="0.1"/>
    <path id="Path_370" data-name="Path 370" d="M436.92,642.986q1.042.354,2.1.654c.38-.65,1.141-1.1,1.3-1.848a.175.175,0,0,0,0-.1.183.183,0,0,0-.08-.072,3.986,3.986,0,0,0-1.65-.483c-.456-.027-.665.449-.871.783C437.646,642.07,437.106,643.059,436.92,642.986Z" transform="translate(-251.862 -434.202)" fill="#fbbebe"/>
    <path id="Path_371" data-name="Path 371" d="M428.287,643.061a1.521,1.521,0,0,1-1.023-.673c-.1-.171-.2-.4-.4-.38s-.262.228-.3.407a11.415,11.415,0,0,1-.574,1.974A3.7,3.7,0,0,1,424.758,646c-.259.179-.544.312-.8.5a5.489,5.489,0,0,1-.673.51,4,4,0,0,1-.517.19,3.584,3.584,0,0,0-.738.38,1.464,1.464,0,0,0-.506.483.7.7,0,0,0-.038.673.719.719,0,0,0,.491.335,2.075,2.075,0,0,0,.612,0c.81-.057,1.62-.129,2.43-.2a7.018,7.018,0,0,0,1.015-.141l.529-.145a4.208,4.208,0,0,1,.924-.137.717.717,0,0,1,.27.027c.186.061.319.247.513.285a.86.86,0,0,0,.38-.049,8.4,8.4,0,0,1,1.8-.186.759.759,0,0,0,.7-.3c.152-.3-.1-.627-.2-.947a3.041,3.041,0,0,1-.084-.62,3.78,3.78,0,0,0-.445-1.476c-.205-.38-.487-.8-.342-1.2a1.142,1.142,0,0,0,.137-.415C430.158,642.912,428.66,643.145,428.287,643.061Z" transform="translate(-242.256 -434.74)" fill="#2f2e41"/>
    <path id="Path_372" data-name="Path 372" d="M472.322,608.436a3.468,3.468,0,0,1-1.772-1.757c-.072-.167-.133-.346-.205-.513a3.9,3.9,0,0,0-1.057-1.472.521.521,0,0,0-.38-.164.414.414,0,0,0-.285.308,1.175,1.175,0,0,0-.03.475,8.464,8.464,0,0,0,.19,1.11l.217.981a2.155,2.155,0,0,0,.133.437,1.52,1.52,0,0,0,.361.43c.2.183.4.357.6.532a2.064,2.064,0,0,0,.38.262,2.209,2.209,0,0,0,.673.2,5.727,5.727,0,0,1,2.525.974v-.73a.967.967,0,0,0-.19-.529A3.374,3.374,0,0,0,472.322,608.436Z" transform="translate(-271.482 -411.516)" fill="#fbbebe"/>
    <path id="Path_373" data-name="Path 373" d="M472.322,608.436a3.468,3.468,0,0,1-1.772-1.757c-.072-.167-.133-.346-.205-.513a3.9,3.9,0,0,0-1.057-1.472.521.521,0,0,0-.38-.164.414.414,0,0,0-.285.308,1.175,1.175,0,0,0-.03.475,8.464,8.464,0,0,0,.19,1.11l.217.981a2.155,2.155,0,0,0,.133.437,1.52,1.52,0,0,0,.361.43c.2.183.4.357.6.532a2.064,2.064,0,0,0,.38.262,2.209,2.209,0,0,0,.673.2,5.727,5.727,0,0,1,2.525.974v-.73a.967.967,0,0,0-.19-.529A3.374,3.374,0,0,0,472.322,608.436Z" transform="translate(-271.482 -411.516)" opacity="0.1"/>
    <ellipse id="Ellipse_57" data-name="Ellipse 57" cx="1.08" cy="1.088" rx="1.08" ry="1.088" transform="translate(208.803 187.237)" fill="#2f2e41"/>
    <path id="Path_374" data-name="Path 374" d="M488.263,590.428a1.167,1.167,0,0,0-.852.122,1.183,1.183,0,0,0-.293.4,5.8,5.8,0,0,0-.563,1.323c-.1.38-.11.81-.232,1.2-.221.722-.787,1.335-.852,2.088-.03.338.027.734-.221.962a1.4,1.4,0,0,1-.194.141,1.46,1.46,0,0,0-.426.437,1.435,1.435,0,0,1-.3.414c-.221.164-.586.148-.692.38s.171.548.106.821-.3.327-.475.479a1.662,1.662,0,0,0-.411.761,2.536,2.536,0,0,1-2.069-.513,6.588,6.588,0,0,1,.323,2.365.966.966,0,0,1-.19.73,13.173,13.173,0,0,1,2.537.441,1.749,1.749,0,0,0,1.107,0,1.846,1.846,0,0,0,.51-.4,3.249,3.249,0,0,0,1.046-1.612,9.463,9.463,0,0,0,.019-1.091,6.155,6.155,0,0,1,.278-1.327,15.793,15.793,0,0,0,.483-2.73c.049-.57.544-1.027.8-1.521a7.448,7.448,0,0,0,1.023-3.042C488.742,590.9,488.62,590.466,488.263,590.428Z" transform="translate(-279.049 -402.757)" fill="#2f2e41"/>
    <path id="Path_375" data-name="Path 375" d="M488.263,590.428a1.167,1.167,0,0,0-.852.122,1.183,1.183,0,0,0-.293.4,5.8,5.8,0,0,0-.563,1.323c-.1.38-.11.81-.232,1.2-.221.722-.787,1.335-.852,2.088-.03.338.027.734-.221.962a1.4,1.4,0,0,1-.194.141,1.46,1.46,0,0,0-.426.437,1.435,1.435,0,0,1-.3.414c-.221.164-.586.148-.692.38s.171.548.106.821-.3.327-.475.479a1.662,1.662,0,0,0-.411.761,2.536,2.536,0,0,1-2.069-.513,6.588,6.588,0,0,1,.323,2.365.966.966,0,0,1-.19.73,13.173,13.173,0,0,1,2.537.441,1.749,1.749,0,0,0,1.107,0,1.846,1.846,0,0,0,.51-.4,3.249,3.249,0,0,0,1.046-1.612,9.463,9.463,0,0,0,.019-1.091,6.155,6.155,0,0,1,.278-1.327,15.793,15.793,0,0,0,.483-2.73c.049-.57.544-1.027.8-1.521a7.448,7.448,0,0,0,1.023-3.042C488.742,590.9,488.62,590.466,488.263,590.428Z" transform="translate(-279.049 -402.757)" opacity="0.1"/>
    <path id="Path_376" data-name="Path 376" d="M461.635,621.092a10.024,10.024,0,0,1-2.35-1.962c-1.426-1.342-3.172-2.282-4.674-3.548a32.937,32.937,0,0,0-2.978-2.5,7.442,7.442,0,0,0-3.191-1.114.849.849,0,0,0-.38,0,.874.874,0,0,0-.361.285,11.492,11.492,0,0,0-1.289,1.768c-1.9,3.232-4.605,5.948-6.845,8.952a.569.569,0,0,0-.11.213.529.529,0,0,0,.084.331l.456.89c.255.5.666,1.084,1.213.985a1.327,1.327,0,0,0,.635-.407l2.046-1.958,2.145-2.05a16.453,16.453,0,0,0,3.354-3.963c.639,1.11,1.776,1.837,2.552,2.852.3.38.54.81.806,1.221.422.654.905,1.27,1.384,1.9l2.46,3.137a4.711,4.711,0,0,0,1.141,1.141,4.354,4.354,0,0,0,1.974.529,26.087,26.087,0,0,0,2.78.1,4.792,4.792,0,0,0,2.073-.38,1.879,1.879,0,0,0,1.122-1.669,2.45,2.45,0,0,0-.354-1.038A8.475,8.475,0,0,0,461.635,621.092Z" transform="translate(-253.433 -416.11)" fill="#2f2e41"/>
    <ellipse id="Ellipse_58" data-name="Ellipse 58" cx="0.833" cy="0.837" rx="0.833" ry="0.837" transform="translate(209.716 188.241)" fill="#e8e8f0"/>
    <path id="Path_377" data-name="Path 377" d="M501.611,588.273a1.6,1.6,0,0,1,.091,1.2,4.878,4.878,0,0,1-.536,1.107,5.268,5.268,0,0,1-.7.989,7.163,7.163,0,0,0,3.658-1.05,5.313,5.313,0,0,0,2.308-2.012,1.065,1.065,0,0,1-.852-.16,3.047,3.047,0,0,1-.65-.6l-.643-.723a2.89,2.89,0,0,1-.38-.521,1.438,1.438,0,0,1-.171-.841,4.891,4.891,0,0,1-.852.707c-.46.3-.966.517-1.43.814-.16.107-.525.274-.43.487S501.482,588.044,501.611,588.273Z" transform="translate(-291.245 -399.822)" fill="#fbbebe"/>
    <path id="Path_378" data-name="Path 378" d="M501.611,588.273a1.6,1.6,0,0,1,.091,1.2,4.878,4.878,0,0,1-.536,1.107,5.268,5.268,0,0,1-.7.989,7.163,7.163,0,0,0,3.658-1.05,5.313,5.313,0,0,0,2.308-2.012,1.065,1.065,0,0,1-.852-.16,3.047,3.047,0,0,1-.65-.6l-.643-.723a2.89,2.89,0,0,1-.38-.521,1.438,1.438,0,0,1-.171-.841,4.891,4.891,0,0,1-.852.707c-.46.3-.966.517-1.43.814-.16.107-.525.274-.43.487S501.482,588.044,501.611,588.273Z" transform="translate(-291.245 -399.822)" opacity="0.1"/>
    <path id="Path_379" data-name="Path 379" d="M495.262,592.64a1.084,1.084,0,0,0,0,1.255c.038.046.175.331.232.335a.209.209,0,0,0,.145-.076,9.542,9.542,0,0,0,.814-.97,1.81,1.81,0,0,1,1.034-.677,2.237,2.237,0,0,1,1.426.445,1.355,1.355,0,0,1,.491.38,1.328,1.328,0,0,1,.16.544,26.194,26.194,0,0,1,.145,3.457,13.619,13.619,0,0,1-.164,2.491c-.084.422-.205.837-.262,1.266a8.082,8.082,0,0,0-.053,1.141v1.59a4.182,4.182,0,0,0,.061.871c.076.346.24.669.35,1.008a6.592,6.592,0,0,1,.232,1.19l.217,1.643a2.077,2.077,0,0,1-.194,1.521c-.141.186-.327.339-.472.525-.536.7-.38,1.7-.589,2.556a3.187,3.187,0,0,1-1.042,1.6,1.723,1.723,0,0,1-1.373.491,1.881,1.881,0,0,1-1.251-1.479,5.914,5.914,0,0,0-.643-1.928,5.113,5.113,0,0,0-1.27-1.061,2.194,2.194,0,0,1-.993-1.289c-.042-.24,0-.487-.042-.73a1.723,1.723,0,0,0-1.061-1.4c-.342-.133-.761-.183-.958-.494a2.308,2.308,0,0,0,1-1.342,6.9,6.9,0,0,0,.243-1.7l.114-1.9a6.353,6.353,0,0,1,.453-2.468c.167-.342.38-.665.551-1a10.9,10.9,0,0,0,.589-1.472c.274-.783.548-1.567.791-2.358a4.443,4.443,0,0,1,.434-1.1C494.581,593.146,494.877,592.716,495.262,592.64Z" transform="translate(-284.88 -404.064)" fill="#e8e8f0"/>
    <path id="Path_380" data-name="Path 380" d="M492.272,604.491h.506l.106-.76a1.588,1.588,0,0,1,.107-.445,2.658,2.658,0,0,1,.293-.426,5.56,5.56,0,0,0,.582-2.491,12.675,12.675,0,0,1,1.11-3.255l.981-2.187a3.023,3.023,0,0,0,.213-.559,3.355,3.355,0,0,0,.061-.646c0-.339.106-1.571.118-1.9,0-.125-.278-.057-.335-.167-.122-.243-.289.415-.521.559a1.278,1.278,0,0,0-.453.662c-.213.548-.342,1.141-.54,1.685a3.441,3.441,0,0,1-.916,1.491c-.2.175-.434.316-.624.506a3.412,3.412,0,0,0-.688,2.415C492.256,599.494,492.157,604.491,492.272,604.491Z" transform="translate(-286.131 -403.503)" fill="#2f2e41"/>
    <path id="Path_381" data-name="Path 381" d="M503.983,590.386a1.726,1.726,0,0,0-.9,1.236,6.251,6.251,0,0,1-.456,1.521c-.616,1.072-2.187,1.384-2.624,2.544a4.676,4.676,0,0,0-.175,1.2c-.076.833-.35,1.635-.434,2.464a10.976,10.976,0,0,0,.046,1.936l.551,6.549a8.747,8.747,0,0,1-.164,2.883,2.776,2.776,0,0,0,1.65-.274c.513-.236.985-.559,1.483-.833a15.277,15.277,0,0,0,2.544-1.43,1.556,1.556,0,0,0,.342-.38,3.289,3.289,0,0,0,.228-.859,4.638,4.638,0,0,1,.247-.677,19.956,19.956,0,0,0,.715-2.023,11.624,11.624,0,0,0,.327-1.384c.061-.38.1-.761.125-1.141a6.692,6.692,0,0,1,.35-1.73,13.938,13.938,0,0,0,.8-4.153,2.172,2.172,0,0,0-.042-.608,3.256,3.256,0,0,0-.335-.7c-.228-.43-.38-.9-.578-1.339a6.583,6.583,0,0,0-2.247-2.362A1.712,1.712,0,0,0,503.983,590.386Z" transform="translate(-290.563 -402.719)" fill="#2f2e41"/>
    <path id="Path_382" data-name="Path 382" d="M471.587,614.972a3.966,3.966,0,0,1-1.046-.795c-.137-.16-.251-.338-.38-.5a2.59,2.59,0,0,0-1.316-.76,6.422,6.422,0,0,0-1.521-.148,2.758,2.758,0,0,0-1.015.122,1.034,1.034,0,0,0-.673.723,1.2,1.2,0,0,0,.513,1.065,2.418,2.418,0,0,0,1.023.494,8.176,8.176,0,0,0,.924.11,13.452,13.452,0,0,1,5.035,2.08q2.1,1.194,4.282,2.221a8.9,8.9,0,0,0,.072-1.312c0-.327-.027-.829-.335-1.023a6.719,6.719,0,0,0-1.361-.407,21.431,21.431,0,0,1-2.742-1.11A13.649,13.649,0,0,1,471.587,614.972Z" transform="translate(-269.656 -416.619)" fill="#fbbebe"/>
    <ellipse id="Ellipse_59" data-name="Ellipse 59" cx="3.24" cy="3.259" rx="3.24" ry="3.259" transform="translate(206.643 181.56)" fill="#fbbebe"/>
    <path id="Path_383" data-name="Path 383" d="M500.912,599.507a5.2,5.2,0,0,0-.628,1.175c-.38.821-1.027,1.521-1.342,2.392s-.319,1.989-.97,2.7a.947.947,0,0,0-.285.411,1.96,1.96,0,0,1-.03.3c-.1.259-.517.27-.6.536-.023.076,0,.16-.038.236-.065.171-.293.2-.441.3-.316.213-.251.707-.475,1.015a.856.856,0,0,1-.81.285,2.854,2.854,0,0,1-.84-.316.81.81,0,0,0-.3-.1.627.627,0,0,0-.35.122,2.156,2.156,0,0,0-.875,1.844,6.023,6.023,0,0,0,.5,2.065.829.829,0,0,0,.164.308.726.726,0,0,0,.806.061,3.806,3.806,0,0,1,.787-.354c.5-.091.993.255,1.5.224a2.087,2.087,0,0,0,1.012-.445,5.59,5.59,0,0,0,1.361-1.141c.221-.293.38-.624.578-.936a11.992,11.992,0,0,1,.818-1.091l1.871-2.282a5.265,5.265,0,0,0,.5-.692,4.88,4.88,0,0,0,.38-1.046,8.009,8.009,0,0,0,.38-1.86,7.146,7.146,0,0,0-.137-1.559,5.512,5.512,0,0,0-.38-1.487C502.665,599.317,501.676,598.617,500.912,599.507Z" transform="translate(-286.568 -408.147)" fill="#2f2e41"/>
    <path id="Path_384" data-name="Path 384" d="M504.467,571.769a3.651,3.651,0,0,0-1.5-2.966,4.339,4.339,0,0,0-3.685-4.225,4.21,4.21,0,0,0-8.294.224c-1.346-.3-2.578.091-2.8.92s.726,1.9,2.145,2.282a4,4,0,0,0,1.377.137,4.214,4.214,0,0,0,2.9,1.806,4.324,4.324,0,0,0,3.164,3.263,3.633,3.633,0,0,0,.977,1.35v.316a2.742,2.742,0,1,0,5.484,0,2.928,2.928,0,0,0-.262-1.213A3.665,3.665,0,0,0,504.467,571.769Z" transform="translate(-283.612 -384.661)" fill="#f86d70"/>
    <path id="Path_385" data-name="Path 385" d="M489.093,565.894c.224-.829,1.456-1.224,2.8-.92a4.282,4.282,0,0,1,4.183-3.605h.278a4.121,4.121,0,0,0-1.194-.179,4.282,4.282,0,0,0-4.183,3.605c-1.346-.3-2.578.091-2.8.92s.726,1.9,2.145,2.282a4.182,4.182,0,0,0,.814.141C489.778,567.731,488.869,566.742,489.093,565.894Z" transform="translate(-283.606 -384.658)" opacity="0.1"/>
    <path id="Path_386" data-name="Path 386" d="M505.573,586.584a2.842,2.842,0,0,1,0-.312,3.551,3.551,0,0,1-.977-1.35,4.313,4.313,0,0,1-3.164-3.267,4.2,4.2,0,0,1-2.9-1.8,3.647,3.647,0,0,1-.81-.023,4.225,4.225,0,0,0,2.8,1.662,4.324,4.324,0,0,0,3.164,3.263,3.632,3.632,0,0,0,.977,1.35v.316a2.791,2.791,0,0,0,2.727,2.837A2.837,2.837,0,0,1,505.573,586.584Z" transform="translate(-289.541 -396.209)" opacity="0.1"/>
    <ellipse id="Ellipse_60" data-name="Ellipse 60" cx="0.498" cy="0.666" rx="0.498" ry="0.666" transform="translate(210.168 185.256) rotate(-37.22)" fill="#fbbebe"/>
  </g>
</svg>
