<svg xmlns="http://www.w3.org/2000/svg" width="221.429" height="42.856" viewBox="0 0 221.429 42.856">
  <g id="logo" transform="translate(-0.5 -0.5)">
    <path id="Path_259" data-name="Path 259" d="M14.528,42.7H6.184V21.9H.5V15.124H6.184V10.306C6.184,4.6,8.7.5,17.019.5c1.76,0,4.523.355,4.523.355V7.143h-2.9c-2.957,0-4.111.9-4.111,3.386v4.6h6.9L20.816,21.9H14.528ZM33.672,14.583c-.122,0-.247,0-.37.008-7.737,0-11.276,5.82-11.276,14.081,0,10.407,4.592,14.572,11.337,14.572,3.859,0,6.395-1.624,7.936-4.656V42.7h7.936V15.127H41.3v4.24A8.133,8.133,0,0,0,33.672,14.583ZM35.69,21.1c3.249,0,5.2,2.267,5.2,6.122l.008,3.938c0,2.6-1.611,5.638-5.207,5.638-5.529,0-5.381-5.97-5.381-7.959,0-6.689,2.946-7.739,5.381-7.739Zm16.749,7.816c0-3.35-.16-14.313,14.123-14.313,5.733,0,8.128,1.823,8.128,1.823l-1.924,5.968a12.559,12.559,0,0,0-5.507-1.317c-3.99,0-6.537,2.313-6.537,6.383l0,2.918c0,3.911,2.457,6.522,6.54,6.522a13.677,13.677,0,0,0,5.454-1.329l1.919,5.844s-2.189,1.835-8.039,1.835c-13.6,0-14.163-9.836-14.163-14.334Zm68.782-14.324c7.737,0,11.333,5.82,11.333,14.081,0,10.407-4.592,14.572-11.337,14.572-3.859,0-6.712-1.624-8.253-4.656V42.7l-7.836,0V1.338l8.32-.726V18.994c1.2-3.216,5.147-4.4,7.774-4.4ZM118.889,21.1c-3.249,0-5.442,2.267-5.442,6.122l-.008,3.938c0,2.6,1.518,5.638,5.449,5.638,5.529,0,5.381-5.97,5.381-7.959,0-6.689-2.946-7.739-5.381-7.739ZM89.125,14.613c-8.775,0-13.408,4.784-13.408,13.287v1.58c0,11.035,6.506,13.877,14.262,13.877,7.539,0,10.951-2.109,10.951-2.109l-1.557-5.615a24.276,24.276,0,0,1-8.4,1.708c-4.544,0-6.5-1.158-7-5.525H101.6v-4.5c0-9.223-5.2-12.7-12.471-12.7Zm.211,5.623c3.038,0,5.006,1.863,4.9,6.183H83.993c.178-4.547,2.3-6.182,5.343-6.182Zm59.807-5.661c-9.011,0-13.756,5.078-13.756,14.179,0,12.486,8.178,14.5,13.771,14.5,8.188,0,13.635-4.408,13.635-14.383,0-10.382-6.125-14.292-13.65-14.292Zm-.113,6.545c3.962,0,5.533,2.966,5.533,6.341v2.9c0,4.089-2.2,6.455-5.548,6.455-3.134,0-5.336-2.213-5.336-6.455v-2.9C143.679,22.938,146.3,21.121,149.03,21.121Zm30.338-6.545c-9.011,0-13.756,5.078-13.756,14.179,0,12.486,8.178,14.5,13.771,14.5,8.187,0,13.635-4.408,13.635-14.383,0-10.382-6.125-14.292-13.65-14.292Zm-.113,6.545c3.962,0,5.532,2.966,5.532,6.341v2.9c0,4.089-2.2,6.455-5.547,6.455-3.134,0-5.336-2.213-5.336-6.455v-2.9C173.9,22.938,176.524,21.121,179.255,21.121ZM196.162,42.7V1.338l8.344-.726v27.72l8.278-13.209H221.6L212.961,28.8,221.929,42.7h-8.837l-8.586-13.488V42.7Z" fill="#1877f2"/>
  </g>
</svg>
