<svg xmlns="http://www.w3.org/2000/svg" width="298.004" height="242.191" viewBox="0 0 298.004 242.191">
  <g id="logo" transform="translate(-540.181 -569.849)">
    <path id="Path_387" data-name="Path 387" d="M633.9,812.04c112.46,0,173.96-93.168,173.96-173.96q0-3.969-.173-7.9a124.338,124.338,0,0,0,30.5-31.66,121.918,121.918,0,0,1-35.111,9.625,61.359,61.359,0,0,0,26.886-33.817,122.619,122.619,0,0,1-38.824,14.841,61.192,61.192,0,0,0-104.188,55.756,173.608,173.608,0,0,1-126.03-63.88,61.193,61.193,0,0,0,18.93,81.623,60.685,60.685,0,0,1-27.69-7.647c-.009.257-.009.507-.009.781A61.157,61.157,0,0,0,601.2,715.733a61.039,61.039,0,0,1-27.613,1.049A61.2,61.2,0,0,0,630.7,759.247a122.655,122.655,0,0,1-75.937,26.171,124.179,124.179,0,0,1-14.584-.846A173.068,173.068,0,0,0,633.9,812.036" fill="#1da1f2"/>
  </g>
</svg>
